<svg version="1.1" xmlns="http://www.w3.org/2000/svg" xmlns:xlink="http://www.w3.org/1999/xlink">

  <symbol id="filter" viewBox="0 0 24 24">
    <path xmlns="http://www.w3.org/2000/svg" fill-rule="evenodd" clip-rule="evenodd" d="M6.0001 4.39961C4.28801 4.39961 2.9001 5.78753 2.9001 7.49961C2.9001 9.21169 4.28801 10.5996 6.0001 10.5996C7.71218 10.5996 9.1001 9.21169 9.1001 7.49961C9.1001 5.78753 7.71218 4.39961 6.0001 4.39961ZM10.8176 6.59961C10.395 4.32328 8.39886 2.59961 6.0001 2.59961C3.2939 2.59961 1.1001 4.79341 1.1001 7.49961C1.1001 10.2058 3.2939 12.3996 6.0001 12.3996C8.39886 12.3996 10.395 10.6759 10.8176 8.39961H19.0001C19.4972 8.39961 19.9001 7.99667 19.9001 7.49961C19.9001 7.00255 19.4972 6.59961 19.0001 6.59961H10.8176ZM18.0001 13.3996C16.288 13.3996 14.9001 14.7875 14.9001 16.4996C14.9001 18.2117 16.288 19.5996 18.0001 19.5996C19.7122 19.5996 21.1001 18.2117 21.1001 16.4996C21.1001 14.7875 19.7122 13.3996 18.0001 13.3996ZM13.1826 17.3996C13.6052 19.6759 15.6013 21.3996 18.0001 21.3996C20.7063 21.3996 22.9001 19.2058 22.9001 16.4996C22.9001 13.7934 20.7063 11.5996 18.0001 11.5996C15.6013 11.5996 13.6052 13.3233 13.1826 15.5996H5.0001C4.50304 15.5996 4.1001 16.0026 4.1001 16.4996C4.1001 16.9967 4.50304 17.3996 5.0001 17.3996H13.1826Z"/>
  </symbol>

  <!-- Folder -->
  <symbol id="folder" viewBox="0 0 18 18">
    <path d="M16.2773 16.3125H1.65234C0.720291 16.3125 -0.0351562 15.5569 -0.0351562 14.625V3.375C-0.0351562 2.44309 0.720291 1.6875 1.65234 1.6875H6.4899C6.78076 1.68682 7.0605 1.79956 7.26952 2.00199L9.18979 3.84357C9.21835 3.87213 9.2439 3.90358 9.26573 3.9375H16.2773C17.2094 3.9375 17.9648 4.69309 17.9648 5.625V14.625C17.9648 15.5569 17.2093 16.3125 16.2773 16.3125ZM1.65234 2.8125C1.34171 2.8125 1.08984 3.06436 1.08984 3.375V14.625C1.08984 14.9356 1.34171 15.1875 1.65234 15.1875H16.2773C16.588 15.1875 16.8398 14.9356 16.8398 14.625V5.625C16.8398 5.31436 16.588 5.0625 16.2773 5.0625H9.26573C8.91499 5.0625 8.58417 4.89881 8.37145 4.61975L6.4899 2.8125H1.65234Z"/>
  </symbol>
  <symbol id="folder_open" viewBox="0 0 18 18">
    <path d="M17.7904 8.34933C17.5172 7.90796 17.0338 7.64456 16.4973 7.64456H15.1584V5.18843C15.1584 4.59558 14.6582 4.11342 14.0435 4.11342H7.48897C7.47935 4.11342 7.4729 4.11067 7.47029 4.10902L6.29723 2.46835C6.08917 2.17749 5.74612 2.00391 5.37946 2.00391H1.11484C0.500015 2.00391 0 2.48621 0 3.07892V14.8615C0 15.4682 0.512238 15.9619 1.14203 15.9619H14.4087C14.6154 15.9619 14.7939 15.8426 14.8803 15.6694L14.8807 15.6695L17.8536 9.69859C18.0692 9.26587 18.0455 8.76146 17.7904 8.34933V8.34933ZM1.11484 3.05859H5.37946C5.41104 3.05859 5.43246 3.07246 5.43919 3.08194L6.61404 4.72495C6.81235 5.00235 7.13947 5.16811 7.48897 5.16811H14.0435C14.0804 5.16811 14.099 5.18541 14.1037 5.19159V7.64456H4.55974C3.96785 7.64456 3.42952 7.97813 3.18823 8.49449L1.05469 13.0603V3.08208C1.05936 3.0759 1.07803 3.05859 1.11484 3.05859V3.05859ZM16.9095 9.22852L14.0821 14.9071H1.35585L4.14377 8.94109C4.21133 8.79648 4.3786 8.69925 4.55974 8.69925H16.4973C16.6658 8.69925 16.814 8.77602 16.8937 8.90456C16.9384 8.97693 16.9774 9.09187 16.9095 9.22852Z"/>
  </symbol>
  <symbol id="doc" viewBox="0 0 24 24">
    <path xmlns="http://www.w3.org/2000/svg" id="icon/action/description_24px_2" fill-rule="evenodd" clip-rule="evenodd" d="M14 2H6C4.90002 2 4 2.89999 4 4V20C4 21.1 4.89001 22 5.98999 22H18C19.1 22 20 21.1 20 20V8L14 2ZM16 12H8V14H16V12ZM16 16H8V18H16V16ZM6 20H18V9H13V4H6V20Z"/>
  </symbol>
  <symbol id="download-sm" viewBox="0 0 24 24">
    <path xmlns="http://www.w3.org/2000/svg" id="icon/file/download_24px_2" fill-rule="evenodd" clip-rule="evenodd" d="M19 9.5H15V3.5H9V9.5H5L12 16.5L19 9.5ZM11 11.5V5.5H13V11.5H14.17L12 13.67L9.83002 11.5H11ZM19 20.5V18.5H5V20.5H19Z"/>
  </symbol>

  <!-- Arrows -->
  <symbol id="arrow_prev" viewBox="0 0 16 16">
    <path xmlns="http://www.w3.org/2000/svg" id="icon/navigation/chevron_left_24px_2" d="M10.47 4.94L9.53 4L5.53 8L9.53 12L10.47 11.06L7.41667 8L10.47 4.94Z"/>
  </symbol>
  <symbol id="arrow_next" viewBox="0 0 16 16">
    <path xmlns="http://www.w3.org/2000/svg" d="M5.52997 11.06L6.46997 12L10.47 8L6.46997 4L5.52997 4.94L8.5833 8L5.52997 11.06Z"/>
  </symbol>
  <symbol id="arrow_first" viewBox="0 0 16 16">
    <path xmlns="http://www.w3.org/2000/svg" id="icon/navigation/arrow_back_24px_2" d="M13.3333 7.33335H5.21999L8.94666 3.60669L7.99999 2.66669L2.66666 8.00002L7.99999 13.3334L8.93999 12.3934L5.21999 8.66669H13.3333V7.33335Z"/>
  </symbol>
  <symbol id="arrow_last" viewBox="0 0 16 16">
    <path xmlns="http://www.w3.org/2000/svg" d="M2.66665 8.66665L10.78 8.66665L7.05331 12.3933L7.99998 13.3333L13.3333 7.99998L7.99998 2.66665L7.05998 3.60665L10.78 7.33331L2.66665 7.33331L2.66665 8.66665Z"/>
  </symbol>
  <symbol id="ddown" viewBox="0 0 16 16">
    <path xmlns="http://www.w3.org/2000/svg" d="M4.66669 6.33334L8.00002 9.66668L11.3334 6.33334H4.66669Z"/>
  </symbol>
  <symbol id="update" viewBox="0 0 18 18">
    <path fill-rule="evenodd" clip-rule="evenodd" d="M17.25 2.25C17.6642 2.25 18 2.58579 18 3V7.5C18 7.91421 17.6642 8.25 17.25 8.25H12.75C12.3358 8.25 12 7.91421 12 7.5C12 7.08579 12.3358 6.75 12.75 6.75H16.5V3C16.5 2.58579 16.8358 2.25 17.25 2.25Z"/>
    <path fill-rule="evenodd" clip-rule="evenodd" d="M9.84567 3.06094C8.55765 2.87824 7.24515 3.11912 6.10594 3.74727C4.96673 4.37542 4.06253 5.35681 3.52961 6.54355C2.99669 7.7303 2.86391 9.0581 3.15128 10.3269C3.43865 11.5957 4.1306 12.7367 5.12287 13.578C6.11514 14.4193 7.35396 14.9153 8.65265 14.9912C9.95134 15.0672 11.2395 14.719 12.3231 13.9992C13.4067 13.2793 14.227 12.2268 14.6604 11.0002C14.7983 10.6096 15.2268 10.4049 15.6174 10.5428C16.0079 10.6808 16.2127 11.1093 16.0747 11.4998C15.533 13.0331 14.5077 14.3488 13.1532 15.2486C11.7987 16.1484 10.1884 16.5836 8.56505 16.4887C6.94168 16.3937 5.39316 15.7737 4.15282 14.7221C2.91249 13.6705 2.04755 12.2442 1.68833 10.6582C1.32912 9.07226 1.49509 7.41251 2.16125 5.92907C2.8274 4.44564 3.95764 3.2189 5.38166 2.43371C6.80567 1.64853 8.4463 1.34743 10.0563 1.5758C11.6625 1.80363 13.1514 2.54607 14.2998 3.69161L17.7642 6.954C18.0658 7.23797 18.08 7.71263 17.796 8.01418C17.5121 8.31574 17.0374 8.32999 16.7359 8.04602L13.2634 4.77602C13.2578 4.77082 13.2524 4.76554 13.247 4.76017C12.3274 3.84 11.1337 3.24363 9.84567 3.06094Z"/>
  </symbol>

  <!-- Other -->
  <symbol id="bell" viewBox="0 0 16 16">
    <path xmlns="http://www.w3.org/2000/svg" fill-rule="evenodd" clip-rule="evenodd" d="M7.99996 2C6.93909 2 5.92168 2.42143 5.17153 3.17157C4.42139 3.92172 3.99996 4.93913 3.99996 6V9.33333C3.99996 9.80549 3.87474 10.2647 3.6427 10.6667H12.3572C12.1252 10.2647 12 9.80549 12 9.33333V6C12 4.93913 11.5785 3.92172 10.8284 3.17157C10.0782 2.42143 9.06083 2 7.99996 2ZM14.6666 10.6667C14.313 10.6667 13.9739 10.5262 13.7238 10.2761C13.4738 10.0261 13.3333 9.68695 13.3333 9.33333V6C13.3333 4.58551 12.7714 3.22896 11.7712 2.22876C10.771 1.22857 9.41445 0.666666 7.99996 0.666666C6.58547 0.666666 5.22892 1.22857 4.22872 2.22876C3.22853 3.22896 2.66663 4.58551 2.66663 6V9.33333C2.66663 9.68695 2.52615 10.0261 2.2761 10.2761C2.02605 10.5262 1.68691 10.6667 1.33329 10.6667C0.965103 10.6667 0.666626 10.9651 0.666626 11.3333C0.666626 11.7015 0.965103 12 1.33329 12H14.6666V10.6667ZM6.51211 13.4233C6.8306 13.2386 7.23855 13.347 7.42329 13.6655C7.4819 13.7665 7.56601 13.8504 7.66722 13.9087C7.76842 13.967 7.88317 13.9976 7.99996 13.9976C8.11675 13.9976 8.2315 13.967 8.3327 13.9087C8.43391 13.8504 8.51802 13.7665 8.57663 13.6655C8.76137 13.347 9.16932 13.2386 9.48781 13.4233C9.80629 13.6081 9.91471 14.016 9.72996 14.3345C9.55415 14.6376 9.3018 14.8892 8.99819 15.064C8.69457 15.2389 8.35034 15.331 7.99996 15.331C7.64958 15.331 7.30535 15.2389 7.00173 15.064C6.69812 14.8892 6.44577 14.6376 6.26996 14.3345C6.08521 14.016 6.19363 13.6081 6.51211 13.4233Z"/>
  </symbol>
  <symbol id="message_square" viewBox="0 0 20 20" >
    <path fill-rule="evenodd" clip-rule="evenodd" d="M3 2C2.73478 2 2.48043 2.10536 2.29289 2.29289C2.10536 2.48043 2 2.73478 2 3V16.5858L4.29289 14.2929C4.48043 14.1054 4.73478 14 5 14H17C17.2652 14 17.5196 13.8946 17.7071 13.7071C17.8946 13.5196 18 13.2652 18 13V3C18 2.73478 17.8946 2.48043 17.7071 2.29289C17.5196 2.10536 17.2652 2 17 2H3ZM0.87868 0.87868C1.44129 0.31607 2.20435 0 3 0H17C17.7957 0 18.5587 0.31607 19.1213 0.87868C19.6839 1.44129 20 2.20435 20 3V13C20 13.7957 19.6839 14.5587 19.1213 15.1213C18.5587 15.6839 17.7957 16 17 16H5.41421L1.70711 19.7071C1.42111 19.9931 0.990991 20.0787 0.617317 19.9239C0.243642 19.7691 0 19.4045 0 19V3C0 2.20435 0.31607 1.44129 0.87868 0.87868Z"/>
  </symbol>
  <symbol id="cogs" viewBox="0 0 24 24" >
    <path fill-rule="evenodd" clip-rule="evenodd" d="M12 10C10.8954 10 10 10.8954 10 12C10 13.1046 10.8954 14 12 14C13.1046 14 14 13.1046 14 12C14 10.8954 13.1046 10 12 10ZM8 12C8 9.79086 9.79086 8 12 8C14.2091 8 16 9.79086 16 12C16 14.2091 14.2091 16 12 16C9.79086 16 8 14.2091 8 12Z"/>
    <path fill-rule="evenodd" clip-rule="evenodd" d="M12 2C11.7348 2 11.4804 2.10536 11.2929 2.29289C11.1054 2.48043 11 2.73478 11 3V3.17399C10.9979 3.6908 10.8448 4.19572 10.5594 4.62661C10.2741 5.0575 9.86895 5.39555 9.39393 5.59914C9.30938 5.63538 9.22042 5.65969 9.12961 5.67157C8.69798 5.82272 8.23333 5.85998 7.781 5.77796C7.26 5.68349 6.77925 5.43512 6.40073 5.06486L6.39285 5.05715L6.33289 4.99711C6.24002 4.90413 6.12934 4.82998 6.00794 4.77965C5.88654 4.72933 5.75642 4.70343 5.625 4.70343C5.49358 4.70343 5.36346 4.72933 5.24206 4.77965C5.12066 4.82998 5.01037 4.90374 4.9175 4.99671L4.91671 4.9975C4.82374 5.09037 4.74998 5.20066 4.69965 5.32206C4.64933 5.44346 4.62343 5.57358 4.62343 5.705C4.62343 5.83642 4.64933 5.96654 4.69965 6.08794C4.74998 6.20934 4.82374 6.31963 4.91671 6.4125L4.98491 6.48069C5.35516 6.85921 5.60349 7.34 5.69796 7.861C5.79055 8.37163 5.73113 8.89797 5.52745 9.37478C5.34189 9.86133 5.01698 10.2827 4.59305 10.5859C4.16054 10.8952 3.64498 11.0673 3.11338 11.0797L3.09 11.08H3C2.73478 11.08 2.48043 11.1854 2.29289 11.3729C2.10536 11.5604 2 11.8148 2 12.08C2 12.3452 2.10536 12.5996 2.29289 12.7871C2.48043 12.9746 2.73478 13.08 3 13.08H3.17399C3.6908 13.0821 4.19572 13.2352 4.62661 13.5206C5.05601 13.8049 5.3932 14.2082 5.59701 14.6811C5.80908 15.1643 5.87211 15.6998 5.77796 16.219C5.68349 16.74 5.43512 17.2207 5.06486 17.5993L5.05715 17.6072L4.9971 17.6671C4.90413 17.76 4.82998 17.8707 4.77965 17.9921C4.72933 18.1135 4.70343 18.2436 4.70343 18.375C4.70343 18.5064 4.72933 18.6365 4.77965 18.7579C4.82998 18.8793 4.90374 18.9896 4.99671 19.0825L4.9975 19.0833C5.09037 19.1763 5.20066 19.25 5.32206 19.3003C5.44346 19.3507 5.57359 19.3766 5.705 19.3766C5.83641 19.3766 5.96654 19.3507 6.08794 19.3003C6.20934 19.25 6.31963 19.1763 6.4125 19.0833L6.48069 19.0151C6.85921 18.6448 7.34 18.3965 7.861 18.302C8.37163 18.2095 8.89796 18.2689 9.37477 18.4725C9.86132 18.6581 10.2827 18.983 10.5859 19.407C10.8952 19.8395 11.0673 20.355 11.0797 20.8866L11.08 20.91V21C11.08 21.2652 11.1854 21.5196 11.3729 21.7071C11.5604 21.8946 11.8148 22 12.08 22C12.3452 22 12.5996 21.8946 12.7871 21.7071C12.9746 21.5196 13.08 21.2652 13.08 21V20.83L13.08 20.826C13.0821 20.3092 13.2352 19.8043 13.5206 19.3734C13.805 18.944 14.2083 18.6067 14.6812 18.4029C15.1643 18.1909 15.6998 18.1279 16.219 18.222C16.74 18.3165 17.2207 18.5649 17.5993 18.9351L17.6071 18.9429L17.6671 19.0029C17.76 19.0959 17.8707 19.17 17.9921 19.2203C18.1135 19.2707 18.2436 19.2966 18.375 19.2966C18.5064 19.2966 18.6365 19.2707 18.7579 19.2203C18.8793 19.17 18.9896 19.0963 19.0825 19.0033L19.0833 19.0025C19.1763 18.9096 19.25 18.7993 19.3003 18.6779C19.3507 18.5565 19.3766 18.4264 19.3766 18.295C19.3766 18.1636 19.3507 18.0335 19.3003 17.9121C19.25 17.7907 19.1763 17.6804 19.0833 17.5875L19.0151 17.5193C18.6448 17.1408 18.3965 16.66 18.302 16.139C18.2079 15.6198 18.2709 15.0843 18.4829 14.6012C18.6867 14.1283 19.024 13.725 19.4534 13.4406C19.8843 13.1552 20.3892 13.0021 20.906 13L20.91 13L21 13C21.2652 13 21.5196 12.8946 21.7071 12.7071C21.8946 12.5196 22 12.2652 22 12C22 11.7348 21.8946 11.4804 21.7071 11.2929C21.5196 11.1054 21.2652 11 21 11H20.83L20.826 11C20.3092 10.9979 19.8043 10.8448 19.3734 10.5594C18.9425 10.2741 18.6045 9.86896 18.4009 9.39393C18.3646 9.30938 18.3403 9.22042 18.3284 9.12961C18.1773 8.69798 18.14 8.23332 18.222 7.781C18.3165 7.26 18.5649 6.77925 18.9351 6.40073L18.9428 6.39285L19.0029 6.3329C19.0959 6.24002 19.17 6.12934 19.2203 6.00794C19.2707 5.88654 19.2966 5.75641 19.2966 5.625C19.2966 5.49359 19.2707 5.36346 19.2203 5.24206C19.17 5.12066 19.0963 5.01037 19.0033 4.9175L19.0025 4.91671C18.9096 4.82374 18.7993 4.74998 18.6779 4.69965C18.5565 4.64933 18.4264 4.62343 18.295 4.62343C18.1636 4.62343 18.0335 4.64933 17.9121 4.69965C17.7907 4.74998 17.6804 4.82374 17.5875 4.91671L17.5193 4.98491C17.1408 5.35516 16.66 5.60349 16.139 5.69796C15.6198 5.79211 15.0843 5.72908 14.6011 5.51701C14.1282 5.3132 13.7249 4.97601 13.4406 4.54661C13.1552 4.11572 13.0021 3.6108 13 3.09399L13 3.09V3C13 2.73478 12.8946 2.48043 12.7071 2.29289C12.5196 2.10536 12.2652 2 12 2ZM19.4 15L20.3149 15.4038C20.2624 15.5226 20.2468 15.6544 20.27 15.7822C20.2929 15.9086 20.3527 16.0253 20.4419 16.1177L20.4967 16.1725C20.4966 16.1724 20.4968 16.1726 20.4967 16.1725C20.7755 16.451 20.997 16.7822 21.1479 17.1462C21.2989 17.5104 21.3766 17.9008 21.3766 18.295C21.3766 18.6892 21.2989 19.0796 21.1479 19.4438C20.9969 19.808 20.7756 20.1389 20.4967 20.4175L19.79 19.71L20.4975 20.4167C20.2189 20.6956 19.888 20.9169 19.5238 21.0679C19.1596 21.2189 18.7692 21.2966 18.375 21.2966C17.9808 21.2966 17.5904 21.2189 17.2262 21.0679C16.8622 20.917 16.5314 20.6959 16.2529 20.4171C16.253 20.4172 16.2528 20.417 16.2529 20.4171L16.1977 20.3619C16.1053 20.2727 15.9886 20.2129 15.8622 20.19C15.7344 20.1668 15.6026 20.1824 15.4838 20.2349L15.474 20.2392C15.3574 20.2891 15.258 20.372 15.1881 20.4777C15.1183 20.583 15.0808 20.7063 15.08 20.8325V21C15.08 21.7957 14.7639 22.5587 14.2013 23.1213C13.6387 23.6839 12.8757 24 12.08 24C11.2843 24 10.5213 23.6839 9.95868 23.1213C9.39607 22.5587 9.08 21.7957 9.08 21V20.9244C9.07526 20.7972 9.03327 20.6741 8.95914 20.5704C8.88326 20.4644 8.77723 20.3836 8.65482 20.3385C8.63505 20.3313 8.61551 20.3234 8.59624 20.3149C8.47742 20.2624 8.34561 20.2468 8.21782 20.27C8.09142 20.2929 7.97467 20.3527 7.8823 20.4419L7.8275 20.4967C7.82763 20.4966 7.82737 20.4968 7.8275 20.4967C7.54896 20.7755 7.21784 20.997 6.85382 21.1479C6.48963 21.2989 6.09925 21.3766 5.705 21.3766C5.31075 21.3766 4.92037 21.2989 4.55618 21.1479C4.19233 20.9971 3.86174 20.7761 3.58329 20.4975C3.30436 20.2189 3.08308 19.888 2.93211 19.5238C2.78113 19.1596 2.70343 18.7692 2.70343 18.375C2.70343 17.9808 2.78113 17.5904 2.93211 17.2262C3.08308 16.862 3.30436 16.5311 3.58329 16.2525L3.63811 16.1977C3.72728 16.1053 3.78713 15.9886 3.81005 15.8622C3.83322 15.7344 3.81758 15.6026 3.76514 15.4838L3.76081 15.474C3.71087 15.3574 3.62801 15.258 3.52232 15.1881C3.41704 15.1183 3.29374 15.0808 3.1675 15.08H3C2.20435 15.08 1.44129 14.7639 0.87868 14.2013C0.316071 13.6387 0 12.8756 0 12.08C0 11.2844 0.316071 10.5213 0.87868 9.95868C1.44129 9.39607 2.20435 9.08 3 9.08H3.07564C3.20283 9.07526 3.32591 9.03327 3.42955 8.95914C3.53564 8.88326 3.61644 8.77723 3.66146 8.65482C3.66874 8.63505 3.67663 8.61551 3.68514 8.59624C3.73758 8.47742 3.75322 8.34561 3.73005 8.21782C3.70713 8.09142 3.64728 7.97468 3.5581 7.88231L3.50329 7.8275C3.22436 7.54888 3.00308 7.21802 2.85211 6.85382C2.70113 6.48963 2.62343 6.09925 2.62343 5.705C2.62343 5.31075 2.70113 4.92037 2.85211 4.55618C3.00301 4.19216 3.22415 3.86143 3.50289 3.58289C3.78143 3.30415 4.11216 3.08301 4.47618 2.93211C4.84037 2.78113 5.23075 2.70343 5.625 2.70343C6.01925 2.70343 6.40963 2.78113 6.77382 2.93211C7.13802 3.08308 7.46888 3.30436 7.7475 3.58329L7.80231 3.6381C7.89468 3.72728 8.01142 3.78713 8.13782 3.81005C8.26561 3.83322 8.39742 3.81758 8.51624 3.76514C8.58027 3.73687 8.64693 3.71549 8.71507 3.70122C8.78479 3.6539 8.84498 3.59323 8.89195 3.52232C8.96167 3.41704 8.99921 3.29374 9 3.1675V3C9 2.20435 9.31607 1.44129 9.87868 0.87868C10.4413 0.316071 11.2044 0 12 0C12.7956 0 13.5587 0.316071 14.1213 0.87868C14.6839 1.44129 15 2.20435 15 3V3.0875C15.0008 3.21374 15.0383 3.33704 15.1081 3.44232C15.178 3.54801 15.2774 3.63092 15.3939 3.68086L15.4038 3.68508C15.5226 3.73752 15.6544 3.75322 15.7822 3.73005C15.9086 3.70713 16.0253 3.64728 16.1177 3.55811L16.1725 3.50329C16.4511 3.22436 16.782 3.00308 17.1462 2.85211C17.5104 2.70113 17.9008 2.62343 18.295 2.62343C18.6892 2.62343 19.0796 2.70113 19.4438 2.85211C19.808 3.00308 20.1389 3.22436 20.4175 3.50329C20.6961 3.78174 20.9171 4.11233 21.0679 4.47618C21.2189 4.84037 21.2966 5.23075 21.2966 5.625C21.2966 6.01925 21.2189 6.40963 21.0679 6.77382C20.917 7.13784 20.6959 7.46857 20.4171 7.7471C20.4172 7.74697 20.417 7.74724 20.4171 7.7471L20.3619 7.80231C20.2727 7.89468 20.2129 8.01142 20.19 8.13782C20.1668 8.26561 20.1824 8.39742 20.2349 8.51624C20.2631 8.58027 20.2845 8.64692 20.2988 8.71507C20.3461 8.78479 20.4068 8.84498 20.4777 8.89195C20.583 8.96167 20.7063 8.99921 20.8325 9H21C21.7957 9 22.5587 9.31607 23.1213 9.87868C23.6839 10.4413 24 11.2043 24 12C24 12.7957 23.6839 13.5587 23.1213 14.1213C22.5587 14.6839 21.7957 15 21 15H20.9125C20.7863 15.0008 20.663 15.0383 20.5577 15.1081C20.452 15.178 20.3691 15.2774 20.3191 15.3939L19.4 15Z"/>
  </symbol>
  <symbol id="printer" viewBox="0 0 24 24">
    <path fill-rule="evenodd" clip-rule="evenodd" d="M5 2C5 1.44772 5.44772 1 6 1H18C18.5523 1 19 1.44772 19 2V9C19 9.55228 18.5523 10 18 10C17.4477 10 17 9.55228 17 9V3H7V9C7 9.55228 6.55228 10 6 10C5.44772 10 5 9.55228 5 9V2Z"/>
    <path fill-rule="evenodd" clip-rule="evenodd" d="M4 10C3.73478 10 3.48043 10.1054 3.29289 10.2929C3.10536 10.4804 3 10.7348 3 11V16C3 16.2652 3.10536 16.5196 3.29289 16.7071C3.48043 16.8946 3.73478 17 4 17H6C6.55228 17 7 17.4477 7 18C7 18.5523 6.55228 19 6 19H4C3.20435 19 2.44129 18.6839 1.87868 18.1213C1.31607 17.5587 1 16.7956 1 16V11C1 10.2044 1.31607 9.44129 1.87868 8.87868C2.44129 8.31607 3.20435 8 4 8H20C20.7957 8 21.5587 8.31607 22.1213 8.87868C22.6839 9.44129 23 10.2043 23 11V16C23 16.7957 22.6839 17.5587 22.1213 18.1213C21.5587 18.6839 20.7957 19 20 19H18C17.4477 19 17 18.5523 17 18C17 17.4477 17.4477 17 18 17H20C20.2652 17 20.5196 16.8946 20.7071 16.7071C20.8946 16.5196 21 16.2652 21 16V11C21 10.7348 20.8946 10.4804 20.7071 10.2929C20.5196 10.1054 20.2652 10 20 10H4Z"/>
    <path fill-rule="evenodd" clip-rule="evenodd" d="M5 14C5 13.4477 5.44772 13 6 13H18C18.5523 13 19 13.4477 19 14V22C19 22.5523 18.5523 23 18 23H6C5.44772 23 5 22.5523 5 22V14ZM7 15V21H17V15H7Z"/>
  </symbol>
  <symbol id="export" viewBox="0 0 24 24">
    <path fill-rule="evenodd" clip-rule="evenodd" d="M21 14C21.5523 14 22 14.4477 22 15V19C22 19.7956 21.6839 20.5587 21.1213 21.1213C20.5587 21.6839 19.7956 22 19 22H5C4.20435 22 3.44129 21.6839 2.87868 21.1213C2.31607 20.5587 2 19.7957 2 19V15C2 14.4477 2.44772 14 3 14C3.55228 14 4 14.4477 4 15V19C4 19.2652 4.10536 19.5196 4.29289 19.7071C4.48043 19.8946 4.73479 20 5 20H19C19.2652 20 19.5196 19.8946 19.7071 19.7071C19.8946 19.5196 20 19.2652 20 19V15C20 14.4477 20.4477 14 21 14Z" />
    <path fill-rule="evenodd" clip-rule="evenodd" d="M17.7071 9.29289C18.0976 9.68342 18.0976 10.3166 17.7071 10.7071L12.7071 15.7071C12.3166 16.0976 11.6834 16.0976 11.2929 15.7071L6.29289 10.7071C5.90237 10.3166 5.90237 9.68342 6.29289 9.29289C6.68342 8.90237 7.31658 8.90237 7.70711 9.29289L12 13.5858L16.2929 9.29289C16.6834 8.90237 17.3166 8.90237 17.7071 9.29289Z" />
    <path fill-rule="evenodd" clip-rule="evenodd" d="M12 2C12.5523 2 13 2.44772 13 3V15C13 15.5523 12.5523 16 12 16C11.4477 16 11 15.5523 11 15V3C11 2.44772 11.4477 2 12 2Z" />
  </symbol>
  <symbol id="user" viewBox="0 0 16 16">
    <path fill-rule="evenodd" clip-rule="evenodd" d="M2.97631 10.3096C3.60143 9.68452 4.44928 9.33333 5.33333 9.33333H10.6667C11.5507 9.33333 12.3986 9.68452 13.0237 10.3096C13.6488 10.9348 14 11.7826 14 12.6667V14C14 14.3682 13.7015 14.6667 13.3333 14.6667C12.9651 14.6667 12.6667 14.3682 12.6667 14V12.6667C12.6667 12.1362 12.456 11.6275 12.0809 11.2525C11.7058 10.8774 11.1971 10.6667 10.6667 10.6667H5.33333C4.8029 10.6667 4.29419 10.8774 3.91912 11.2525C3.54405 11.6275 3.33333 12.1362 3.33333 12.6667V14C3.33333 14.3682 3.03486 14.6667 2.66667 14.6667C2.29848 14.6667 2 14.3682 2 14V12.6667C2 11.7826 2.35119 10.9348 2.97631 10.3096Z"/>
    <path fill-rule="evenodd" clip-rule="evenodd" d="M8.00002 2.66667C6.89545 2.66667 6.00002 3.5621 6.00002 4.66667C6.00002 5.77124 6.89545 6.66667 8.00002 6.66667C9.10459 6.66667 10 5.77124 10 4.66667C10 3.5621 9.10459 2.66667 8.00002 2.66667ZM4.66669 4.66667C4.66669 2.82572 6.15907 1.33333 8.00002 1.33333C9.84097 1.33333 11.3334 2.82572 11.3334 4.66667C11.3334 6.50762 9.84097 8 8.00002 8C6.15907 8 4.66669 6.50762 4.66669 4.66667Z"/>
  </symbol>
  <symbol id="calendar" viewBox="0 0 18 18">
    <path fill-rule="evenodd" clip-rule="evenodd" d="M3.75 3.75C3.33579 3.75 3 4.08579 3 4.5V15C3 15.4142 3.33579 15.75 3.75 15.75H14.25C14.6642 15.75 15 15.4142 15 15V4.5C15 4.08579 14.6642 3.75 14.25 3.75H3.75ZM1.5 4.5C1.5 3.25736 2.50736 2.25 3.75 2.25H14.25C15.4926 2.25 16.5 3.25736 16.5 4.5V15C16.5 16.2426 15.4926 17.25 14.25 17.25H3.75C2.50736 17.25 1.5 16.2426 1.5 15V4.5Z"/>
    <path fill-rule="evenodd" clip-rule="evenodd" d="M12 0.75C12.4142 0.75 12.75 1.08579 12.75 1.5V4.5C12.75 4.91421 12.4142 5.25 12 5.25C11.5858 5.25 11.25 4.91421 11.25 4.5V1.5C11.25 1.08579 11.5858 0.75 12 0.75Z"/>
    <path fill-rule="evenodd" clip-rule="evenodd" d="M6 0.75C6.41421 0.75 6.75 1.08579 6.75 1.5V4.5C6.75 4.91421 6.41421 5.25 6 5.25C5.58579 5.25 5.25 4.91421 5.25 4.5V1.5C5.25 1.08579 5.58579 0.75 6 0.75Z"/>
    <path fill-rule="evenodd" clip-rule="evenodd" d="M1.5 7.5C1.5 7.08579 1.83579 6.75 2.25 6.75H15.75C16.1642 6.75 16.5 7.08579 16.5 7.5C16.5 7.91421 16.1642 8.25 15.75 8.25H2.25C1.83579 8.25 1.5 7.91421 1.5 7.5Z"/>
  </symbol>
  <symbol id="check" viewBox="0 0 24 24">
    <path xmlns="http://www.w3.org/2000/svg" fill-rule="evenodd" clip-rule="evenodd" d="M20.7071 5.29289C21.0976 5.68342 21.0976 6.31658 20.7071 6.70711L9.70711 17.7071C9.31658 18.0976 8.68342 18.0976 8.29289 17.7071L3.29289 12.7071C2.90237 12.3166 2.90237 11.6834 3.29289 11.2929C3.68342 10.9024 4.31658 10.9024 4.70711 11.2929L9 15.5858L19.2929 5.29289C19.6834 4.90237 20.3166 4.90237 20.7071 5.29289Z"/>
  </symbol>
  <symbol id="check_circle" viewBox="0 0 20 20">
    <path fill-rule="evenodd" clip-rule="evenodd" d="M13.0525 3.14451C11.5752 2.48627 9.92474 2.3232 8.34718 2.67962C6.76963 3.03605 5.34956 3.89288 4.29875 5.12232C3.24795 6.35176 2.62271 7.88794 2.5163 9.50175C2.40989 11.1156 2.82799 12.7205 3.70826 14.0773C4.58853 15.4341 5.8838 16.47 7.40089 17.0305C8.91799 17.5909 10.5756 17.646 12.1266 17.1874C13.6775 16.7289 15.0387 15.7812 16.007 14.4859C16.9754 13.1905 17.4991 11.6168 17.5 9.99951V9.23332C17.5 8.77309 17.8731 8.39999 18.3334 8.39999C18.7936 8.39999 19.1667 8.77309 19.1667 9.23332V9.99999C19.1656 11.9767 18.5255 13.9006 17.3419 15.4838C16.1584 17.067 14.4947 18.2252 12.5991 18.7857C10.7035 19.3462 8.67753 19.2789 6.82331 18.5938C4.96908 17.9088 3.38597 16.6427 2.31009 14.9844C1.2342 13.3262 0.723183 11.3645 0.853244 9.39209C0.983306 7.41965 1.74748 5.5421 3.0318 4.03945C4.31611 2.5368 6.05176 1.48957 7.97988 1.05393C9.908 0.6183 11.9253 0.817608 13.7309 1.62213C14.1513 1.80945 14.3402 2.3021 14.1529 2.72249C13.9656 3.14288 13.4729 3.33183 13.0525 3.14451Z"/>
    <path fill-rule="evenodd" clip-rule="evenodd" d="M18.9224 2.74378C19.248 3.06906 19.2482 3.59669 18.923 3.92229L10.5896 12.264C10.4334 12.4204 10.2214 12.5083 10.0003 12.5083C9.7792 12.5084 9.56716 12.4206 9.41083 12.2643L6.91083 9.76426C6.58539 9.43882 6.58539 8.91118 6.91083 8.58574C7.23626 8.26031 7.7639 8.26031 8.08934 8.58574L9.99979 10.4962L17.7439 2.74437C18.0691 2.41877 18.5968 2.41851 18.9224 2.74378Z"/>
  </symbol>
  <symbol id="x_circle" viewBox="0 0 20 20">
    <path fill-rule="evenodd" clip-rule="evenodd" d="M10 2.49998C5.8579 2.49998 2.50004 5.85784 2.50004 9.99998C2.50004 14.1421 5.8579 17.5 10 17.5C14.1422 17.5 17.5 14.1421 17.5 9.99998C17.5 5.85784 14.1422 2.49998 10 2.49998ZM0.833374 9.99998C0.833374 4.93737 4.93743 0.833313 10 0.833313C15.0626 0.833313 19.1667 4.93737 19.1667 9.99998C19.1667 15.0626 15.0626 19.1666 10 19.1666C4.93743 19.1666 0.833374 15.0626 0.833374 9.99998Z"/>
    <path fill-rule="evenodd" clip-rule="evenodd" d="M13.0893 6.91072C13.4147 7.23616 13.4147 7.7638 13.0893 8.08923L8.0893 13.0892C7.76386 13.4147 7.23622 13.4147 6.91078 13.0892C6.58535 12.7638 6.58535 12.2362 6.91078 11.9107L11.9108 6.91072C12.2362 6.58529 12.7639 6.58529 13.0893 6.91072Z"/>
    <path fill-rule="evenodd" clip-rule="evenodd" d="M6.91078 6.91072C7.23622 6.58529 7.76386 6.58529 8.0893 6.91072L13.0893 11.9107C13.4147 12.2362 13.4147 12.7638 13.0893 13.0892C12.7639 13.4147 12.2362 13.4147 11.9108 13.0892L6.91078 8.08923C6.58535 7.7638 6.58535 7.23616 6.91078 6.91072Z"/>
  </symbol>
  <symbol id="alert" viewBox="0 0 24 24">
    <path d="M12 23C5.9 23 1 18.1 1 12C1 5.9 5.9 1 12 1C18.1 1 23 5.9 23 12C23 18.1 18.1 23 12 23ZM12 3C7 3 3 7 3 12C3 17 7 21 12 21C17 21 21 17 21 12C21 7 17 3 12 3Z"/>
    <path d="M12 13C11.4 13 11 12.6 11 12V8C11 7.4 11.4 7 12 7C12.6 7 13 7.4 13 8V12C13 12.6 12.6 13 12 13Z"/>
    <path d="M12 17C11.7 17 11.5 16.9 11.3 16.7C11.1 16.5 11 16.3 11 16C11 15.9 11 15.7 11.1 15.6C11.2 15.5 11.2 15.4 11.3 15.3C11.6 15 12 14.9 12.4 15.1C12.5 15.1 12.5 15.1 12.6 15.2C12.6 15.2 12.7 15.3 12.8 15.3C12.9 15.4 13 15.5 13 15.6C13 15.7 13 15.9 13 16C13 16.1 13 16.3 12.9 16.4C12.8 16.5 12.8 16.6 12.7 16.7C12.5 16.9 12.3 17 12 17Z"/>
  </symbol>
  <symbol id="delete" viewBox="0 0 18 18">
    <path fill-rule="evenodd" clip-rule="evenodd" d="M1.5 4.5C1.5 4.08579 1.83579 3.75 2.25 3.75H15.75C16.1642 3.75 16.5 4.08579 16.5 4.5C16.5 4.91421 16.1642 5.25 15.75 5.25H2.25C1.83579 5.25 1.5 4.91421 1.5 4.5Z"/>
    <path fill-rule="evenodd" clip-rule="evenodd" d="M7.5 2.25C7.30109 2.25 7.11032 2.32902 6.96967 2.46967C6.82902 2.61032 6.75 2.80109 6.75 3V3.75H11.25V3C11.25 2.80109 11.171 2.61032 11.0303 2.46967C10.8897 2.32902 10.6989 2.25 10.5 2.25H7.5ZM12.75 3.75V3C12.75 2.40326 12.5129 1.83097 12.091 1.40901C11.669 0.987053 11.0967 0.75 10.5 0.75H7.5C6.90326 0.75 6.33097 0.987053 5.90901 1.40901C5.48705 1.83097 5.25 2.40326 5.25 3V3.75H3.75C3.33579 3.75 3 4.08579 3 4.5V15C3 15.5967 3.23705 16.169 3.65901 16.591C4.08097 17.0129 4.65326 17.25 5.25 17.25H12.75C13.3467 17.25 13.919 17.0129 14.341 16.591C14.7629 16.169 15 15.5967 15 15V4.5C15 4.08579 14.6642 3.75 14.25 3.75H12.75ZM4.5 5.25V15C4.5 15.1989 4.57902 15.3897 4.71967 15.5303C4.86032 15.671 5.05109 15.75 5.25 15.75H12.75C12.9489 15.75 13.1397 15.671 13.2803 15.5303C13.421 15.3897 13.5 15.1989 13.5 15V5.25H4.5Z"/>
    <path fill-rule="evenodd" clip-rule="evenodd" d="M7.5 7.5C7.91421 7.5 8.25 7.83579 8.25 8.25V12.75C8.25 13.1642 7.91421 13.5 7.5 13.5C7.08579 13.5 6.75 13.1642 6.75 12.75V8.25C6.75 7.83579 7.08579 7.5 7.5 7.5Z"/>
    <path fill-rule="evenodd" clip-rule="evenodd" d="M10.5 7.5C10.9142 7.5 11.25 7.83579 11.25 8.25V12.75C11.25 13.1642 10.9142 13.5 10.5 13.5C10.0858 13.5 9.75 13.1642 9.75 12.75V8.25C9.75 7.83579 10.0858 7.5 10.5 7.5Z"/>
  </symbol>
  <symbol id="edit" viewBox="0 0 18 18">
    <path fill-rule="evenodd" clip-rule="evenodd" d="M3 3.75C2.80109 3.75 2.61032 3.82902 2.46967 3.96967C2.32902 4.11032 2.25 4.30109 2.25 4.5V15C2.25 15.1989 2.32902 15.3897 2.46967 15.5303C2.61032 15.671 2.80109 15.75 3 15.75H13.5C13.6989 15.75 13.8897 15.671 14.0303 15.5303C14.171 15.3897 14.25 15.1989 14.25 15V10.995C14.25 10.5808 14.5858 10.245 15 10.245C15.4142 10.245 15.75 10.5808 15.75 10.995V15C15.75 15.5967 15.5129 16.169 15.091 16.591C14.669 17.0129 14.0967 17.25 13.5 17.25H3C2.40326 17.25 1.83097 17.0129 1.40901 16.591C0.987053 16.169 0.75 15.5967 0.75 15V4.5C0.75 3.90326 0.987053 3.33097 1.40901 2.90901C1.83097 2.48705 2.40326 2.25 3 2.25H7.005C7.41921 2.25 7.755 2.58579 7.755 3C7.755 3.41421 7.41921 3.75 7.005 3.75H3Z"/>
    <path fill-rule="evenodd" clip-rule="evenodd" d="M12.9697 0.96967C13.2626 0.676777 13.7374 0.676777 14.0303 0.96967L17.0303 3.96967C17.3232 4.26256 17.3232 4.73744 17.0303 5.03033L9.53033 12.5303C9.38968 12.671 9.19891 12.75 9 12.75H6C5.58579 12.75 5.25 12.4142 5.25 12V9C5.25 8.80109 5.32902 8.61032 5.46967 8.46967L12.9697 0.96967ZM6.75 9.31066V11.25H8.68934L15.4393 4.5L13.5 2.56066L6.75 9.31066Z"/>
  </symbol>
  <symbol id="eye" viewBox="0 0 18 18">
    <path fill-rule="evenodd" clip-rule="evenodd" d="M1.60556 9C1.68752 9.14165 1.79619 9.32216 1.93081 9.53061C2.27658 10.066 2.78862 10.7779 3.4534 11.487C4.79664 12.9198 6.67463 14.25 9 14.25C11.3254 14.25 13.2034 12.9198 14.5466 11.487C15.2114 10.7779 15.7234 10.066 16.0692 9.53061C16.2038 9.32216 16.3125 9.14165 16.3944 9C16.3125 8.85835 16.2038 8.67784 16.0692 8.46939C15.7234 7.93402 15.2114 7.22205 14.5466 6.51296C13.2034 5.08017 11.3254 3.75 9 3.75C6.67463 3.75 4.79664 5.08017 3.4534 6.51296C2.78862 7.22205 2.27658 7.93402 1.93081 8.46939C1.79619 8.67784 1.68752 8.85835 1.60556 9ZM17.25 9C17.9208 8.66459 17.9207 8.66434 17.9206 8.66406L17.9193 8.66165L17.9168 8.65653L17.9082 8.63987C17.9011 8.62596 17.891 8.60649 17.8779 8.58183C17.8518 8.53252 17.814 8.46242 17.7645 8.37449C17.6657 8.19873 17.5201 7.95114 17.3292 7.65561C16.9485 7.06598 16.3824 6.27795 15.6409 5.48704C14.1716 3.91983 11.9246 2.25 9 2.25C6.07537 2.25 3.82836 3.91983 2.3591 5.48704C1.61763 6.27795 1.05155 7.06598 0.670752 7.65561C0.479888 7.95114 0.334344 8.19873 0.235479 8.37449C0.186018 8.46242 0.148155 8.53252 0.122065 8.58183C0.109018 8.60649 0.0989064 8.62596 0.0917535 8.63987L0.0832425 8.65653L0.0806542 8.66165L0.0797776 8.6634C0.0796397 8.66367 0.0791796 8.66459 0.75 9L0.0791796 8.66459C-0.0263932 8.87574 -0.0263932 9.12426 0.0791796 9.33541L0.75 9C0.0791796 9.33541 0.0790418 9.33513 0.0791796 9.33541L0.0806542 9.33835L0.0832425 9.34347L0.0917535 9.36013C0.0989064 9.37405 0.109018 9.39352 0.122065 9.41817C0.148155 9.46748 0.186018 9.53758 0.235479 9.62551C0.334344 9.80127 0.479888 10.0489 0.670752 10.3444C1.05155 10.934 1.61763 11.7221 2.3591 12.513C3.82836 14.0802 6.07537 15.75 9 15.75C11.9246 15.75 14.1716 14.0802 15.6409 12.513C16.3824 11.7221 16.9485 10.934 17.3292 10.3444C17.5201 10.0489 17.6657 9.80127 17.7645 9.62551C17.814 9.53758 17.8518 9.46748 17.8779 9.41817C17.891 9.39352 17.9011 9.37405 17.9082 9.36013L17.9168 9.34347L17.9193 9.33835L17.9202 9.3366C17.9204 9.33633 17.9208 9.33541 17.25 9ZM17.25 9L17.9208 9.33541C18.0264 9.12426 18.0261 8.87521 17.9206 8.66406L17.25 9Z"/>
    <path fill-rule="evenodd" clip-rule="evenodd" d="M9 7.5C8.17157 7.5 7.5 8.17157 7.5 9C7.5 9.82843 8.17157 10.5 9 10.5C9.82843 10.5 10.5 9.82843 10.5 9C10.5 8.17157 9.82843 7.5 9 7.5ZM6 9C6 7.34315 7.34315 6 9 6C10.6569 6 12 7.34315 12 9C12 10.6569 10.6569 12 9 12C7.34315 12 6 10.6569 6 9Z"/>
  </symbol>
  <symbol id="eye-off" viewBox="0 0 24 24">
    <g clip-path="url(#clip0)">
    <path d="M12 21C4.5 21 0.3 12.8 0.1 12.4C-1.49012e-08 12.1 -1.49012e-08 11.8 0.1 11.5C1.4 9.1 3.2 7 5.5 5.3C5.9 4.9 6.5 5 6.9 5.5C7.2 5.9 7.2 6.6 6.7 6.9C4.8 8.3 3.3 10 2.1 12C3 13.6 6.6 19 12 19C13.9 19 15.8 18.3 17.3 17.1C17.7 16.8 18.4 16.9 18.7 17.3C19 17.7 18.9 18.4 18.5 18.7C16.7 20.2 14.4 21 12 21ZM20.8 16.2C20.6 16.2 20.3 16.1 20.2 16C19.8 15.6 19.7 15 20.1 14.6C20.8 13.8 21.4 13 21.9 12.1C21 10.5 17.4 5.1 12 5.1C11.4 5.1 10.7 5.2 10.1 5.3C9.6 5.3 9.1 5 8.9 4.5C8.7 4 9.1 3.4 9.6 3.3C10.4 3.1 11.2 3 12 3C19.5 3 23.7 11.2 23.9 11.6C24 11.9 24 12.2 23.9 12.5C23.3 13.7 22.5 14.8 21.6 15.9C21.4 16.1 21.1 16.2 20.8 16.2ZM11.9 16.1C10.9 16.1 9.9 15.7 9.2 15C8.4 14.3 8 13.3 7.9 12.2C7.9 11.1 8.2 10.1 9 9.3C9.1 9.2 9.1 9.2 9.2 9.1C9.6 8.7 10.2 8.7 10.6 9.1C11 9.5 11 10.1 10.6 10.5L10.5 10.6C10.1 11 9.9 11.5 10 12C10 12.5 10.2 13 10.6 13.4C11.4 14.2 12.7 14.1 13.4 13.3C13.8 12.9 14.4 12.9 14.8 13.3C15.2 13.7 15.2 14.3 14.8 14.7C14.1 15.6 13 16.1 11.9 16.1Z"/>
    <path d="M23 24C22.7 24 22.5 23.9 22.3 23.7L0.3 1.7C-0.1 1.3 -0.1 0.7 0.3 0.3C0.7 -0.1 1.3 -0.1 1.7 0.3L23.7 22.3C24.1 22.7 24.1 23.3 23.7 23.7C23.5 23.9 23.3 24 23 24Z"/>
    </g>
    <defs>
    <clipPath id="clip0">
    <rect width="24" height="24" fill="white"/>
    </clipPath>
    </defs>
  </symbol>
  <symbol id="plus" viewBox="0 0 18 18">
    <path fill-rule="evenodd" clip-rule="evenodd" d="M9 3C9.41421 3 9.75 3.33579 9.75 3.75V14.25C9.75 14.6642 9.41421 15 9 15C8.58579 15 8.25 14.6642 8.25 14.25V3.75C8.25 3.33579 8.58579 3 9 3Z"/>
    <path fill-rule="evenodd" clip-rule="evenodd" d="M3 9C3 8.58579 3.33579 8.25 3.75 8.25H14.25C14.6642 8.25 15 8.58579 15 9C15 9.41421 14.6642 9.75 14.25 9.75H3.75C3.33579 9.75 3 9.41421 3 9Z"/>
  </symbol>
  <symbol id="minus_circle" viewBox="0 0 24 24">
      <path fill-rule="evenodd" clip-rule="evenodd" d="M12 3C7.02944 3 3 7.02944 3 12C3 16.9706 7.02944 21 12 21C16.9706 21 21 16.9706 21 12C21 7.02944 16.9706 3 12 3ZM1 12C1 5.92487 5.92487 1 12 1C18.0751 1 23 5.92487 23 12C23 18.0751 18.0751 23 12 23C5.92487 23 1 18.0751 1 12Z"/>
      <path fill-rule="evenodd" clip-rule="evenodd" d="M7 12C7 11.4477 7.44772 11 8 11H16C16.5523 11 17 11.4477 17 12C17 12.5523 16.5523 13 16 13H8C7.44772 13 7 12.5523 7 12Z"/>
  </symbol>
  <symbol id="plus_circle" viewBox="0 0 24 24">
      <path fill-rule="evenodd" clip-rule="evenodd" d="M12 3C7.02944 3 3 7.02944 3 12C3 16.9706 7.02944 21 12 21C16.9706 21 21 16.9706 21 12C21 7.02944 16.9706 3 12 3ZM1 12C1 5.92487 5.92487 1 12 1C18.0751 1 23 5.92487 23 12C23 18.0751 18.0751 23 12 23C5.92487 23 1 18.0751 1 12Z"/>
      <path fill-rule="evenodd" clip-rule="evenodd" d="M12 7C12.5523 7 13 7.44772 13 8V16C13 16.5523 12.5523 17 12 17C11.4477 17 11 16.5523 11 16V8C11 7.44772 11.4477 7 12 7Z"/>
      <path fill-rule="evenodd" clip-rule="evenodd" d="M7 12C7 11.4477 7.44772 11 8 11H16C16.5523 11 17 11.4477 17 12C17 12.5523 16.5523 13 16 13H8C7.44772 13 7 12.5523 7 12Z"/>
  </symbol>
  <symbol id="search" viewBox="0 0 18 18">
    <path fill-rule="evenodd" clip-rule="evenodd" d="M8.25 3C5.3505 3 3 5.3505 3 8.25C3 11.1495 5.3505 13.5 8.25 13.5C11.1495 13.5 13.5 11.1495 13.5 8.25C13.5 5.3505 11.1495 3 8.25 3ZM1.5 8.25C1.5 4.52208 4.52208 1.5 8.25 1.5C11.9779 1.5 15 4.52208 15 8.25C15 11.9779 11.9779 15 8.25 15C4.52208 15 1.5 11.9779 1.5 8.25Z"/>
    <path fill-rule="evenodd" clip-rule="evenodd" d="M11.9572 11.9572C12.2501 11.6643 12.7249 11.6643 13.0178 11.9572L16.2803 15.2197C16.5732 15.5126 16.5732 15.9874 16.2803 16.2803C15.9874 16.5732 15.5126 16.5732 15.2197 16.2803L11.9572 13.0178C11.6643 12.7249 11.6643 12.2501 11.9572 11.9572Z"/>
  </symbol>
  <symbol id="logout" viewBox="0 0 18 18">
    <path fill-rule="evenodd" clip-rule="evenodd" d="M3.75 3C3.55109 3 3.36032 3.07902 3.21967 3.21967C3.07902 3.36032 3 3.55109 3 3.75V14.25C3 14.4489 3.07902 14.6397 3.21967 14.7803C3.36032 14.921 3.55109 15 3.75 15H6.75C7.16421 15 7.5 15.3358 7.5 15.75C7.5 16.1642 7.16421 16.5 6.75 16.5H3.75C3.15326 16.5 2.58097 16.2629 2.15901 15.841C1.73705 15.419 1.5 14.8467 1.5 14.25V3.75C1.5 3.15326 1.73705 2.58097 2.15901 2.15901C2.58097 1.73705 3.15326 1.5 3.75 1.5H6.75C7.16421 1.5 7.5 1.83579 7.5 2.25C7.5 2.66421 7.16421 3 6.75 3H3.75Z"/>
    <path fill-rule="evenodd" clip-rule="evenodd" d="M11.4697 4.71967C11.7626 4.42678 12.2374 4.42678 12.5303 4.71967L16.2803 8.46967C16.5732 8.76256 16.5732 9.23744 16.2803 9.53033L12.5303 13.2803C12.2374 13.5732 11.7626 13.5732 11.4697 13.2803C11.1768 12.9874 11.1768 12.5126 11.4697 12.2197L14.6893 9L11.4697 5.78033C11.1768 5.48744 11.1768 5.01256 11.4697 4.71967Z"/>
    <path fill-rule="evenodd" clip-rule="evenodd" d="M6 9C6 8.58579 6.33579 8.25 6.75 8.25H15.75C16.1642 8.25 16.5 8.58579 16.5 9C16.5 9.41421 16.1642 9.75 15.75 9.75H6.75C6.33579 9.75 6 9.41421 6 9Z"/>
  </symbol>
  <symbol id="clock" viewBox="0 0 24 24">
    <path fill-rule="evenodd" clip-rule="evenodd" d="M12 3C7.02944 3 3 7.02944 3 12C3 16.9706 7.02944 21 12 21C16.9706 21 21 16.9706 21 12C21 7.02944 16.9706 3 12 3ZM1 12C1 5.92487 5.92487 1 12 1C18.0751 1 23 5.92487 23 12C23 18.0751 18.0751 23 12 23C5.92487 23 1 18.0751 1 12Z"/>
    <path fill-rule="evenodd" clip-rule="evenodd" d="M12 5C12.5523 5 13 5.44772 13 6V11.382L16.4472 13.1056C16.9412 13.3526 17.1414 13.9532 16.8944 14.4472C16.6474 14.9412 16.0468 15.1414 15.5528 14.8944L11.5528 12.8944C11.214 12.725 11 12.3788 11 12V6C11 5.44772 11.4477 5 12 5Z"/>
  </symbol>
  <symbol id="close" viewBox="0 0 24 24">
    <path fill-rule="evenodd" clip-rule="evenodd" d="M18.7071 5.29289C19.0976 5.68342 19.0976 6.31658 18.7071 6.70711L6.70711 18.7071C6.31658 19.0976 5.68342 19.0976 5.29289 18.7071C4.90237 18.3166 4.90237 17.6834 5.29289 17.2929L17.2929 5.29289C17.6834 4.90237 18.3166 4.90237 18.7071 5.29289Z"/>
    <path fill-rule="evenodd" clip-rule="evenodd" d="M5.29289 5.29289C5.68342 4.90237 6.31658 4.90237 6.70711 5.29289L18.7071 17.2929C19.0976 17.6834 19.0976 18.3166 18.7071 18.7071C18.3166 19.0976 17.6834 19.0976 17.2929 18.7071L5.29289 6.70711C4.90237 6.31658 4.90237 5.68342 5.29289 5.29289Z"/>
  </symbol>
  <symbol id="download" viewBox="0 0 18 18">
    <path fill-rule="evenodd" clip-rule="evenodd" d="M2.25 10.5C2.66421 10.5 3 10.8358 3 11.25V14.25C3 14.4489 3.07902 14.6397 3.21967 14.7803C3.36032 14.921 3.55109 15 3.75 15H14.25C14.4489 15 14.6397 14.921 14.7803 14.7803C14.921 14.6397 15 14.4489 15 14.25V11.25C15 10.8358 15.3358 10.5 15.75 10.5C16.1642 10.5 16.5 10.8358 16.5 11.25V14.25C16.5 14.8467 16.2629 15.419 15.841 15.841C15.419 16.2629 14.8467 16.5 14.25 16.5H3.75C3.15326 16.5 2.58097 16.2629 2.15901 15.841C1.73705 15.419 1.5 14.8467 1.5 14.25V11.25C1.5 10.8358 1.83579 10.5 2.25 10.5Z"/>
    <path fill-rule="evenodd" clip-rule="evenodd" d="M4.71967 6.96967C5.01256 6.67678 5.48744 6.67678 5.78033 6.96967L9 10.1893L12.2197 6.96967C12.5126 6.67678 12.9874 6.67678 13.2803 6.96967C13.5732 7.26256 13.5732 7.73744 13.2803 8.03033L9.53033 11.7803C9.23744 12.0732 8.76256 12.0732 8.46967 11.7803L4.71967 8.03033C4.42678 7.73744 4.42678 7.26256 4.71967 6.96967Z"/>
    <path fill-rule="evenodd" clip-rule="evenodd" d="M9 1.5C9.41421 1.5 9.75 1.83579 9.75 2.25V11.25C9.75 11.6642 9.41421 12 9 12C8.58579 12 8.25 11.6642 8.25 11.25V2.25C8.25 1.83579 8.58579 1.5 9 1.5Z"/>
  </symbol>
  <symbol id="hdot" viewBox="0 0 18 18">
    <path fill-rule="evenodd" clip-rule="evenodd" d="M7.5 9C7.5 8.17157 8.17157 7.5 9 7.5C9.82843 7.5 10.5 8.17157 10.5 9C10.5 9.82843 9.82843 10.5 9 10.5C8.17157 10.5 7.5 9.82843 7.5 9Z"/>
    <path fill-rule="evenodd" clip-rule="evenodd" d="M12.75 9C12.75 8.17157 13.4216 7.5 14.25 7.5C15.0784 7.5 15.75 8.17157 15.75 9C15.75 9.82843 15.0784 10.5 14.25 10.5C13.4216 10.5 12.75 9.82843 12.75 9Z"/>
    <path fill-rule="evenodd" clip-rule="evenodd" d="M2.25 9C2.25 8.17157 2.92157 7.5 3.75 7.5C4.57843 7.5 5.25 8.17157 5.25 9C5.25 9.82843 4.57843 10.5 3.75 10.5C2.92157 10.5 2.25 9.82843 2.25 9Z"/>
  </symbol>
  <symbol id="full_screen" viewBox="0 0 18 18">
    <path fill-rule="evenodd" clip-rule="evenodd" d="M10.5 2.25C10.5 1.83579 10.8358 1.5 11.25 1.5H15.75C16.1642 1.5 16.5 1.83579 16.5 2.25V6.75C16.5 7.16421 16.1642 7.5 15.75 7.5C15.3358 7.5 15 7.16421 15 6.75V3H11.25C10.8358 3 10.5 2.66421 10.5 2.25Z"/>
    <path fill-rule="evenodd" clip-rule="evenodd" d="M2.25 10.5C2.66421 10.5 3 10.8358 3 11.25V15H6.75C7.16421 15 7.5 15.3358 7.5 15.75C7.5 16.1642 7.16421 16.5 6.75 16.5H2.25C1.83579 16.5 1.5 16.1642 1.5 15.75V11.25C1.5 10.8358 1.83579 10.5 2.25 10.5Z"/>
    <path fill-rule="evenodd" clip-rule="evenodd" d="M16.2803 1.71967C16.5732 2.01256 16.5732 2.48744 16.2803 2.78033L11.0303 8.03033C10.7374 8.32322 10.2626 8.32322 9.96967 8.03033C9.67678 7.73744 9.67678 7.26256 9.96967 6.96967L15.2197 1.71967C15.5126 1.42678 15.9874 1.42678 16.2803 1.71967Z"/>
    <path fill-rule="evenodd" clip-rule="evenodd" d="M8.03033 9.96967C8.32322 10.2626 8.32322 10.7374 8.03033 11.0303L2.78033 16.2803C2.48744 16.5732 2.01256 16.5732 1.71967 16.2803C1.42678 15.9874 1.42678 15.5126 1.71967 15.2197L6.96967 9.96967C7.26256 9.67678 7.73744 9.67678 8.03033 9.96967Z"/>
  </symbol>
  <symbol id="globe" viewBox="0 0 18 18">
    <path fill-rule="evenodd" clip-rule="evenodd" d="M9 2.25C5.27208 2.25 2.25 5.27208 2.25 9C2.25 12.7279 5.27208 15.75 9 15.75C12.7279 15.75 15.75 12.7279 15.75 9C15.75 5.27208 12.7279 2.25 9 2.25ZM0.75 9C0.75 4.44365 4.44365 0.75 9 0.75C13.5563 0.75 17.25 4.44365 17.25 9C17.25 13.5563 13.5563 17.25 9 17.25C4.44365 17.25 0.75 13.5563 0.75 9Z"/>
    <path fill-rule="evenodd" clip-rule="evenodd" d="M0.75 9C0.75 8.58579 1.08579 8.25 1.5 8.25H16.5C16.9142 8.25 17.25 8.58579 17.25 9C17.25 9.41421 16.9142 9.75 16.5 9.75H1.5C1.08579 9.75 0.75 9.41421 0.75 9Z"/>
    <path fill-rule="evenodd" clip-rule="evenodd" d="M6.75017 9C6.80158 11.3061 7.59469 13.5264 9 15.3369C10.4053 13.5264 11.1984 11.3061 11.2498 9C11.1984 6.69387 10.4053 4.47363 9 2.6631C7.59469 4.47363 6.80158 6.69387 6.75017 9ZM9 1.5L8.44624 0.994183C6.44767 3.18218 5.31188 6.02164 5.25016 8.98438C5.24995 8.99479 5.24995 9.00521 5.25016 9.01562C5.31188 11.9784 6.44767 14.8178 8.44624 17.0058C8.58834 17.1614 8.78931 17.25 9 17.25C9.21069 17.25 9.41166 17.1614 9.55376 17.0058C11.5523 14.8178 12.6881 11.9784 12.7498 9.01562C12.7501 9.00521 12.7501 8.99479 12.7498 8.98438C12.6881 6.02164 11.5523 3.18218 9.55376 0.994183L9 1.5Z"/>
  </symbol>
  <symbol id="burger" viewBox="0 0 30 16">
    <path fill-rule="evenodd" clip-rule="evenodd" d="M2.5 7.99992C2.5 7.63173 3.05964 7.33325 3.75 7.33325H26.25C26.9404 7.33325 27.5 7.63173 27.5 7.99992C27.5 8.36811 26.9404 8.66659 26.25 8.66659H3.75C3.05964 8.66659 2.5 8.36811 2.5 7.99992Z"/>
    <path fill-rule="evenodd" clip-rule="evenodd" d="M2.5 3.99992C2.5 3.63173 3.05964 3.33325 3.75 3.33325H26.25C26.9404 3.33325 27.5 3.63173 27.5 3.99992C27.5 4.36811 26.9404 4.66659 26.25 4.66659H3.75C3.05964 4.66659 2.5 4.36811 2.5 3.99992Z"/>
    <path fill-rule="evenodd" clip-rule="evenodd" d="M2.5 11.9999C2.5 11.6317 3.05964 11.3333 3.75 11.3333H26.25C26.9404 11.3333 27.5 11.6317 27.5 11.9999C27.5 12.3681 26.9404 12.6666 26.25 12.6666H3.75C3.05964 12.6666 2.5 12.3681 2.5 11.9999Z"/>
  </symbol>
  <symbol id="map_location" viewBox="0 0 24 24">
    <path fill-rule="evenodd" clip-rule="evenodd" d="M8.25 9C8.25 6.92893 9.92893 5.25 12 5.25C14.0711 5.25 15.75 6.92893 15.75 9C15.75 11.0711 14.0711 12.75 12 12.75C9.92893 12.75 8.25 11.0711 8.25 9ZM12 6.75C10.7574 6.75 9.75 7.75736 9.75 9C9.75 10.2426 10.7574 11.25 12 11.25C13.2426 11.25 14.25 10.2426 14.25 9C14.25 7.75736 13.2426 6.75 12 6.75Z"/>
    <path fill-rule="evenodd" clip-rule="evenodd" d="M5.45641 8.12724C5.73017 4.80603 8.50555 2.25 11.838 2.25H12.162C15.4945 2.25 18.2698 4.80603 18.5436 8.12724C18.6903 9.90751 18.1404 11.6753 17.0097 13.0581L13.4149 17.4545C12.6836 18.3488 11.3164 18.3488 10.5851 17.4545L6.99032 13.0581C5.85958 11.6752 5.30967 9.90751 5.45641 8.12724ZM11.838 3.75C9.28621 3.75 7.16097 5.70726 6.95134 8.25046C6.83652 9.64343 7.2668 11.0266 8.15154 12.1086L11.7463 16.505C11.8774 16.6653 12.1226 16.6653 12.2537 16.505L15.8485 12.1086C16.7332 11.0266 17.1635 9.64343 17.0487 8.25046C16.839 5.70726 14.7138 3.75 12.162 3.75H11.838Z"/>
    <path d="M7.67082 16.3354C7.85606 15.9649 7.70589 15.5144 7.33541 15.3292C6.96493 15.1439 6.51442 15.2941 6.32918 15.6646L4.32918 19.6646C4.21293 19.8971 4.22536 20.1732 4.36201 20.3943C4.49867 20.6154 4.74007 20.75 5 20.75H19C19.2599 20.75 19.5013 20.6154 19.638 20.3943C19.7746 20.1732 19.7871 19.8971 19.6708 19.6646L17.6708 15.6646C17.4856 15.2941 17.0351 15.1439 16.6646 15.3292C16.2941 15.5144 16.1439 15.9649 16.3292 16.3354L17.7865 19.25H6.21353L7.67082 16.3354Z"/>
  </symbol>
  <symbol id="alert_triangle" viewBox="0 0 24 24">
    <path d="M3.5 22C3 22 2.5 21.9 2 21.6C0.600002 20.8 0.100002 18.9 0.900002 17.5L9.4 3.30002C9.7 2.90002 10 2.50002 10.4 2.30002C11.1 1.90002 11.9 1.80002 12.7 2.00002C13.5 2.20002 14.1 2.70002 14.6 3.40002L23 17.5C23.3 18 23.4 18.5 23.4 19C23.4 19.8 23.1 20.6 22.5 21.1C22 21.7 21.3 22 20.5 22H3.5ZM11.1 4.40002L2.7 18.5C2.4 19 2.6 19.6 3.1 19.9C3.2 20 3.4 20 3.5 20H20.4C20.7 20 20.9 19.9 21.1 19.7C21.3 19.5 21.4 19.3 21.4 19C21.4 18.8 21.4 18.7 21.3 18.5L12.9 4.40002C12.6 3.90002 12 3.80002 11.5 4.00002C11.3 4.10002 11.2 4.20002 11.1 4.40002Z" />
    <path d="M12 14C11.4 14 11 13.6 11 13V9.00002C11 8.40002 11.4 8.00002 12 8.00002C12.6 8.00002 13 8.40002 13 9.00002V13C13 13.6 12.6 14 12 14Z" />
    <path d="M12 18C11.7 18 11.5 17.9 11.3 17.7C11.1 17.5 11 17.3 11 17C11 16.9 11 16.7 11.1 16.6C11.2 16.5 11.2 16.4 11.3 16.3C11.4 16.2 11.5 16.1 11.6 16.1C11.8 16 12 16 12.2 16C12.3 16 12.3 16 12.4 16.1C12.5 16.1 12.5 16.1 12.6 16.2C12.6 16.2 12.7 16.3 12.8 16.3C12.9 16.4 13 16.5 13 16.6C13 16.7 13.1 16.9 13.1 17C13.1 17.3 13 17.5 12.8 17.7C12.5 17.9 12.3 18 12 18Z" />
  </symbol>
  <symbol id="file" viewBox="0 0 24 24">
    <path fill-rule="evenodd" clip-rule="evenodd" d="M3.87868 1.87868C4.44129 1.31607 5.20435 1 6 1H13C13.2652 1 13.5196 1.10536 13.7071 1.29289L20.7071 8.29289C20.8946 8.48043 21 8.73478 21 9V20C21 20.7957 20.6839 21.5587 20.1213 22.1213C19.5587 22.6839 18.7957 23 18 23H6C5.20435 23 4.44129 22.6839 3.87868 22.1213C3.31607 21.5587 3 20.7957 3 20V4C3 3.20435 3.31607 2.44129 3.87868 1.87868ZM6 3C5.73478 3 5.48043 3.10536 5.29289 3.29289C5.10536 3.48043 5 3.73478 5 4V20C5 20.2652 5.10536 20.5196 5.29289 20.7071C5.48043 20.8946 5.73478 21 6 21H18C18.2652 21 18.5196 20.8946 18.7071 20.7071C18.8946 20.5196 19 20.2652 19 20V9.41421L12.5858 3H6Z"/>
    <path fill-rule="evenodd" clip-rule="evenodd" d="M13 1C13.5523 1 14 1.44772 14 2V8H20C20.5523 8 21 8.44772 21 9C21 9.55228 20.5523 10 20 10H13C12.4477 10 12 9.55228 12 9V2C12 1.44772 12.4477 1 13 1Z" />
  </symbol>
</svg>
