<svg xmlns="http://www.w3.org/2000/svg" width="43" height="38" viewBox="0 0 43 38" xmlns:xlink="http://www.w3.org/1999/xlink">
  <desc>
    Created using Figma
  </desc>
  <use fill="#B6010E" xlink:href="#a" transform="translate(9.653)"/>
  <use fill="#161616" xlink:href="#b" transform="translate(15.473 6.168)"/>
  <use fill="#535353" xlink:href="#c" transform="translate(21.402 9.46)"/>
  <g transform="translate(-21 -781)">
    <use fill="#161616" xlink:href="#d" transform="translate(21 804.15)"/>
  </g>
  <defs>
    <path id="a" d="M23.5072 9.4404c1.4506 1.3915 1.8832 3.3757 1.8832 3.3757s.3552-.827.4327-1.3914c.106-.7706.094-1.136-.1272-1.881-.196-.6595-.4242-1.13-.8398-1.675-.7665-1.005-2.0105-1.5204-2.0105-1.5204s0-.7473-.2036-1.1854c-.4408-.948-1.184-1.7116-2.2397-2.6284-1.247-1.083-4.352-2.4282-7.024-2.5254C9.128-.1456 6.1504 1.7355 6.1504 1.7355S9.408-.16 13.4545.2667c2.9013.306 3.9956 1.3142 3.9956 1.3142s-3.512-1-6.795-.335c-3.4356.6957-7.1076 3.1413-8.9836 6.7256C-1.2553 13.5634.5516 18.743.5516 18.743s-1.0733-4.5096 1.1198-8.8903C4.471 4.261 9.4844 2.689 9.4844 2.689c-1.1876.6614-3.4803 1.7523-5.497 4.9734C.2603 13.615 2.4603 18.7687 2.7657 19.31c-1.6543-4.4066-.5854-8.7873 1.985-11.931 2.494-3.0505 5.9298-3.7108 8.0166-3.7108 2.087 0 4.4762 1.0307 5.6244 2.113-.509.189-.8908 1.442-.229 2.0873.7663.7473 1.671.2835 2.0105-.1288 0 0 1.8832.3092 3.334 1.7007z"/>
    <path id="b" d="M6.9732 0c2.9012 0 4.4028 1.546 4.4028 1.546-1.9597.3094-6.3836 3.0924-6.286 7.8854.1085 5.334 3.6137 7.5502 3.6137 7.5502s-3.8683-.206-6.0315-2.9376C1.2162 12.2056.4358 10.8086.4326 8.4522.4303 6.669.7786 5.588 1.705 4.0715c.714-1.1683 2.087-2.2935 2.3924-2.551.0556-.047.0832-.115.051-.1805-.0256-.0516-.2825-.034-.4582 0-.5345.103-1.182.473-1.807.9792C.9926 3.0407 0 4.5095 0 4.5095s.9925-2.0777 3.1048-3.35C4.459.3442 5.398 0 6.9733 0z"/>
    <path id="c" d="M5.854.007C6.277.028 6.916.0845 6.923.1875c.002.0302.021.056 0 .0774-.1018.103-1.8697.6957-2.774 1.9068-.9044 1.2112-1.0647 2.01-1.1198 2.68-.1018 1.237.0604 2.0198.6362 3.118C4.193 8.976 4.687 9.479 5.625 10.1084c1.1665.7827 2.1636 1.0097 3.563 1.005.652-.0022 1.527-.206 1.527-.206s-.8728.7976-1.5016 1.211c-.656.4314-1.7815.9277-1.7815.9277s-2.036-.4497-3.5376-1.8037c-.962-.8676-1.398-1.5198-1.934-2.7058-.9672-2.1388-.331-4.664-.331-4.664S1.044 5.2638 1.044 6.81c0 1.5035.253 2.367.8654 3.7365.6108 1.3658 1.9087 2.68 1.9087 2.68s-.9184-.6224-1.4505-1.1596c-.812-.82-1.2766-1.5623-1.7306-2.6286C.169 8.34.0114 7.7744.0006 6.578c-.0094-1.0422.0774-1.66.458-2.6283.5516-1.4033 1.1325-2.2064 2.3923-3.015C3.8866.27 4.6294-.053 5.854.007z"/>
    <path id="d" d="M4.6492 12.2627c-.8143 0-1.5322-.197-2.154-.591-.6128-.394-1.0856-.928-1.4183-1.6023C.744 9.3864.578 8.629.578 7.7974c0-.858.1794-1.6505.5383-2.3772.3678-.7267.8624-1.3002 1.484-1.7205.6305-.4202 1.3134-.6304 2.049-.6304.7003 0 1.3132.1007 1.8386.302.534.1927.928.4423 1.182.7487.1487.184.2406.429.2757.7355.035.2977.0525.7092.0525 1.2345h-.2627c-.1663-.8493-.4728-1.4753-.9193-1.878-.4465-.4116-1.0375-.6173-1.773-.6173-.9456 0-1.7073.3327-2.2852.998-.578.6655-.8668 1.7337-.8668 3.2046 0 .6917.1094 1.3353.3283 1.9306.2277.5953.578 1.0812 1.0507 1.4577.4728.3678 1.0638.5516 1.773.5516.639 0 1.195-.1532 1.668-.4596.4815-.3065.9105-.766 1.287-1.379l.2627.197c-.403.788-.902 1.3483-1.4973 1.681-.5867.324-1.2915.486-2.1145.486zm5.464 1.97c.429 0 .7792-.1007 1.0506-.302.2802-.1927.521-.5517.7224-1.077l.2626-.7224-2.1013-5.122c-.245-.6304-.7267-.9806-1.4447-1.0506V5.696h1.1164c.7617 0 1.287.3502 1.576 1.0507l1.4972 3.638 1.6548-4.5574h.6566l-2.561 7.0264c-.254.6917-.534 1.16-.8405 1.4052-.3064.245-.7048.3677-1.195.3677h-.394v-.394zM16.61 7.4033c0-.4465-.0614-.7748-.184-.985-.1226-.219-.3677-.3283-.7355-.3283h-.197v-.2627H16.61c.3238 0 .5646.0438.7222.1314.1663.0788.2845.2276.3546.4465.07.219.105.5516.105.998V8.651h2.6267V5.8273h1.182v4.5967c0 .4465.0613.7792.184.998.1225.2103.3676.3153.7354.3153h.197V12h-1.1165c-.324 0-.569-.0394-.7354-.1182-.1575-.0876-.2714-.2408-.3414-.4597-.07-.2188-.105-.5515-.105-.998V9.1763h-2.6267V12H16.61V7.4033zm11.8952 4.728c-.7092 0-1.344-.3502-1.9044-1.0506l-1.5103-1.9044V12h-1.182V7.4033c0-.4465-.0613-.7748-.184-.985-.1224-.219-.3676-.3283-.7353-.3283h-.2627v-.2627h1.182c.324 0 .5647.0438.7223.1314.1664.0788.2846.2276.3546.4465.07.219.105.5516.105.998v1.576l1.6418-2.2982c.2013-.2802.4334-.4903.696-.6304.2714-.1488.6085-.2233 1.0113-.2233h.3283v.3284c-.5078 0-.9018.197-1.182.591l-1.4446 2.0356 1.5103 1.9044c.245.3152.486.5603.7223.7354.2452.1752.5078.2847.788.3285V12c-.1926.0876-.4115.1313-.6566.1313zm3.179 0c-.28 0-.5646-.057-.8535-.1707-.289-.1226-.5385-.3196-.7486-.591-.2013-.2714-.302-.6304-.302-1.077 0-.6654.3065-1.138.9193-1.4183.6217-.2802 1.4316-.4203 2.4297-.4203h.394c0-.858-.1182-1.4447-.3546-1.76-.2364-.315-.578-.4727-1.0244-.4727-.394 0-.7092.0832-.9456.2496-.2364.1662-.4027.4552-.499.8667h-.591c0-.2977.0175-.5297.0525-.696.035-.1752.1268-.3372.2757-.486.1576-.1576.416-.2715.7748-.3415.3678-.0788.7662-.1182 1.1952-.1182.7092 0 1.2695.1926 1.681.578.4116.3764.6173 1.103.6173 2.18V12h-.6567l-.4596-.591h-.0657c-.1576.2014-.3896.372-.696.5122-.3065.14-.6874.21-1.1427.21zm.591-.591c.289 0 .53-.07.7225-.21.1926-.1402.3677-.3328.5253-.578v-1.773h-.394c-.648 0-1.16.1226-1.5366.3678-.3765.2365-.5647.5517-.5647.9457 0 .4027.1182.7135.3546.9324.245.2103.5428.3153.893.3153zm4.4582-4.137c0-.4465-.0613-.7748-.184-.985-.1225-.219-.3676-.3283-.7353-.3283h-.2626v-.2627h1.182c.3327 0 .5822.0482.7486.1445.175.0876.2977.2364.3677.4465h.0657c.1576-.2013.381-.372.6698-.5122.289-.14.6567-.21 1.1032-.21.753 0 1.3352.3064 1.7467.9193.4116.6042.6174 1.3703.6174 2.2984 0 .9368-.2145 1.7073-.6435 2.3114-.4204.6043-1.0377.9063-1.852.9063-.3327 0-.626-.035-.88-.105-.2538-.07-.5077-.1664-.7616-.289v2.758h-1.182v-7.092zm2.4297 4.2027c.5604 0 .972-.2452 1.2346-.7355.2714-.4903.407-1.1426.407-1.9568 0-.8055-.1268-1.4535-.3807-1.9438-.254-.499-.6305-.7487-1.1296-.7487-.5866 0-1.0463.2627-1.379.788v4.2027c.2627.1226.4903.219.683.289.1925.07.3808.105.5647.105z"/>
  </defs>
</svg>
