<svg xmlns="http://www.w3.org/2000/svg" width="136" height="53" viewBox="0 0 136 53" xmlns:xlink="http://www.w3.org/1999/xlink">
  <desc>
    Created using Figma
  </desc>
  <use fill="#B6010E" xlink:href="#a"/>
  <use fill="#161616" xlink:href="#b" transform="translate(13.26 14.12)"/>
  <use fill="#535353" xlink:href="#c" transform="translate(26.78 21.656)"/>
  <g transform="translate(-2152 -469)">
    <use fill="#161616" xlink:href="#d" transform="translate(2211 496)"/>
  </g>
  <defs>
    <path id="a" d="M53.5744 21.6136c3.306 3.1858 4.292 7.7286 4.292 7.7286s.8095-1.894.986-3.1858c.2413-1.7644.2145-2.601-.29-4.3068-.4462-1.5097-.9666-2.587-1.914-3.8348-1.7467-2.301-4.582-3.481-4.582-3.481s0-1.7108-.464-2.7137c-1.0043-2.1706-2.698-3.9185-5.104-6.0176C43.656 3.323 36.58.2432 30.4898.0207c-9.6863-.354-16.4725 3.9528-16.4725 3.9528S21.4417-.3665 30.664.6107c6.612.7005 9.106 3.0088 9.106 3.0088s-8.004-2.289-15.4863-.767c-7.83 1.593-16.199 7.192-20.4744 15.3983-6.6702 12.8023-2.552 24.6607-2.552 24.6607s-2.4463-10.3245 2.552-20.354c6.38-12.8023 17.8064-16.401 17.8064-16.401-2.7068 1.514-7.932 4.0117-12.5283 11.3863-8.494 13.6283-3.48 25.4277-2.784 26.6666-3.7702-10.0884-1.334-20.118 4.524-27.3156C16.5116 9.91 24.3417 8.3983 29.0978 8.3983c4.7562 0 10.2015 2.3597 12.8184 4.8377-1.16.4327-2.03 3.3017-.522 4.7788 1.7467 1.711 3.8087.649 4.582-.295 0 0 4.2922.708 7.5982 3.8938z"/>
    <path id="b" d="M15.8924 0c6.612 0 10.0342 3.5398 10.0342 3.5398-4.466.708-14.5486 7.0797-14.3263 18.053.2473 12.2125 8.2362 17.2862 8.2362 17.2862s-8.8162-.472-13.7464-6.7256C2.772 27.9444.993 24.746.986 19.351c-.0053-4.0826.7883-6.5576 2.9-10.0295 1.627-2.6748 4.7562-5.2507 5.4522-5.8407.1267-.1073.1898-.263.116-.413-.058-.118-.6435-.0776-1.044 0-1.218.236-2.6937 1.083-4.118 2.242C2.262 6.9615 0 10.3244 0 10.3244s2.262-4.757 7.0762-7.6696C10.1622.7877 12.3017 0 15.8924 0z"/>
    <path id="c" d="M13.3418.0162c.9634.0474 2.42.177 2.436.413.0047.069.048.128 0 .177-.232.236-4.261 1.593-6.322 4.3657-2.0612 2.7728-2.4264 4.6017-2.552 6.1356-.232 2.832.1377 4.6243 1.45 7.1387 1.2023 2.304 2.3283 3.4558 4.466 4.8967 2.6586 1.792 4.931 2.3116 8.1202 2.301 1.4864-.005 3.48-.472 3.48-.472s-1.989 1.8262-3.422 2.7728c-1.4953.9877-4.06 2.124-4.06 2.124s-4.6402-1.03-8.0623-4.13c-2.1925-1.986-3.186-3.4793-4.408-6.1946-2.204-4.8968-.754-10.6785-.754-10.6785s-1.334 3.186-1.334 6.7257c0 3.4422.576 5.419 1.972 8.5546 1.392 3.1268 4.35 6.1356 4.35 6.1356s-2.0933-1.425-3.306-2.6548c-1.8508-1.877-2.9095-3.5766-3.944-6.0177C.3856 19.094.026 17.7993.0014 15.0605-.02 12.674.178 11.26 1.0455 9.0427 2.3026 5.83 3.6265 3.9913 6.4977 2.14 8.858.6184 10.5507-.121 13.3417.0163z"/>
    <path id="d" d="M8.496 19.48c-1.488 0-2.8-.36-3.936-1.08-1.12-.72-1.984-1.696-2.592-2.928-.608-1.248-.912-2.632-.912-4.152 0-1.568.328-3.016.984-4.344.672-1.328 1.576-2.376 2.712-3.144 1.152-.768 2.4-1.152 3.744-1.152 1.28 0 2.4.184 3.36.552.976.352 1.696.808 2.16 1.368.272.336.44.784.504 1.344.064.544.096 1.296.096 2.256h-.48c-.304-1.552-.864-2.696-1.68-3.432-.816-.752-1.896-1.128-3.24-1.128-1.728 0-3.12.608-4.176 1.824C3.984 6.68 3.456 8.632 3.456 11.32c0 1.264.2 2.44.6 3.528.416 1.088 1.056 1.976 1.92 2.664.864.672 1.944 1.008 3.24 1.008 1.168 0 2.184-.28 3.048-.84.88-.56 1.664-1.4 2.352-2.52l.48.36c-.736 1.44-1.648 2.464-2.736 3.072-1.072.592-2.36.888-3.864.888zm9.985 3.6c.784 0 1.424-.184 1.92-.552.512-.352.952-1.008 1.32-1.968l.48-1.32-3.84-9.36c-.448-1.152-1.328-1.792-2.64-1.92v-.48h2.04c1.392 0 2.352.64 2.88 1.92l2.736 6.648 3.024-8.328h1.2l-4.68 12.84c-.464 1.264-.976 2.12-1.536 2.568-.56.448-1.288.672-2.184.672h-.72v-.72zM30.353 10.6c0-.816-.112-1.416-.336-1.8-.224-.4-.672-.6-1.344-.6h-.36v-.48h2.04c.592 0 1.032.08 1.32.24.304.144.52.416.648.816.128.4.192 1.008.192 1.824v2.28h4.8V7.72h2.16v8.4c0 .816.112 1.424.336 1.824.224.384.672.576 1.344.576h.36V19h-2.04c-.592 0-1.04-.072-1.344-.216-.288-.16-.496-.44-.624-.84-.128-.4-.192-1.008-.192-1.824v-2.28h-4.8V19h-2.16v-8.4zm21.7377 8.64c-1.296 0-2.456-.64-3.48-1.92l-2.76-3.48V19h-2.16v-8.4c0-.816-.112-1.416-.336-1.8-.224-.4-.672-.6-1.344-.6h-.48v-.48h2.16c.592 0 1.032.08 1.32.24.304.144.52.416.648.816.128.4.192 1.008.192 1.824v2.88l3-4.2c.368-.512.792-.896 1.272-1.152.496-.272 1.112-.408 1.848-.408h.6v.6c-.928 0-1.648.36-2.16 1.08l-2.64 3.72 2.76 3.48c.448.576.888 1.024 1.32 1.344.448.32.928.52 1.44.6V19c-.352.16-.752.24-1.2.24zm5.8097 0c-.512 0-1.032-.104-1.56-.312-.528-.224-.984-.584-1.368-1.08-.368-.496-.552-1.152-.552-1.968 0-1.216.56-2.08 1.68-2.592 1.136-.512 2.616-.768 4.44-.768h.72c0-1.568-.216-2.64-.648-3.216-.432-.576-1.056-.864-1.872-.864-.72 0-1.296.152-1.728.456-.432.304-.736.832-.912 1.584h-1.08c0-.544.032-.968.096-1.272.064-.32.232-.616.504-.888.288-.288.76-.496 1.416-.624.672-.144 1.4-.216 2.184-.216 1.296 0 2.32.352 3.072 1.056.752.688 1.128 2.016 1.128 3.984V19h-1.2l-.84-1.08h-.12c-.288.368-.712.68-1.272.936s-1.256.384-2.088.384zm1.08-1.08c.528 0 .968-.128 1.32-.384.352-.256.672-.608.96-1.056v-3.24h-.72c-1.184 0-2.12.224-2.808.672-.688.432-1.032 1.008-1.032 1.728 0 .736.216 1.304.648 1.704.448.384.992.576 1.632.576zm8.1467-7.56c0-.816-.112-1.416-.336-1.8-.224-.4-.672-.6-1.344-.6h-.48v-.48h2.16c.608 0 1.064.088 1.368.264.32.16.544.432.672.816h.12c.288-.368.696-.68 1.224-.936s1.2-.384 2.016-.384c1.376 0 2.44.56 3.192 1.68.752 1.104 1.128 2.504 1.128 4.2 0 1.712-.392 3.12-1.176 4.224-.768 1.104-1.896 1.656-3.384 1.656-.608 0-1.144-.064-1.608-.192-.464-.128-.928-.304-1.392-.528v5.04h-2.16V10.6zm4.44 7.68c1.024 0 1.776-.448 2.256-1.344.496-.896.744-2.088.744-3.576 0-1.472-.232-2.656-.696-3.552-.464-.912-1.152-1.368-2.064-1.368-1.072 0-1.912.48-2.52 1.44v7.68c.48.224.896.4 1.248.528s.696.192 1.032.192z"/>
  </defs>
</svg>
