<svg width="100" height="30" viewBox="0 0 100 30" fill="none" xmlns="http://www.w3.org/2000/svg">
<path d="M30.6879 12.2339C32.5678 14.0372 33.1284 16.6086 33.1284 16.6086C33.1284 16.6086 33.5887 15.5369 33.6891 14.8054C33.8265 13.8068 33.811 13.3333 33.5243 12.3678C33.2703 11.5132 32.9746 10.9034 32.436 10.1971C31.4427 8.89475 29.8305 8.22683 29.8305 8.22683C29.8305 8.22683 29.8305 7.25839 29.5667 6.69064C28.9954 5.46211 28.0323 4.47254 26.6642 3.28444C25.0482 1.88096 21.0244 0.137684 17.5616 0.0117206C12.0536 -0.188758 8.19481 2.249 8.19481 2.249C8.19481 2.249 12.4164 -0.20742 17.6604 0.34555C21.4203 0.742102 22.8384 2.04865 22.8384 2.04865C22.8384 2.04865 18.2871 0.752729 14.0326 1.61452C9.58028 2.51609 4.82166 5.6854 2.39051 10.3304C-1.4024 17.577 0.939202 24.2894 0.939202 24.2894C0.939202 24.2894 -0.451711 18.4453 2.39038 12.7683C6.01844 5.52185 12.5155 3.48466 12.5155 3.48466C10.9764 4.34178 8.00522 5.7555 5.39174 9.9298C0.561701 17.6439 3.41273 24.3227 3.80851 25.0242C1.66466 19.3136 3.04987 13.6365 6.38091 9.56254C9.61294 5.60933 14.0655 4.75363 16.7698 4.75363C19.4744 4.75363 22.5706 6.08933 24.0586 7.49191C23.399 7.73684 22.9042 9.36063 23.7619 10.1969C24.7549 11.1653 25.9273 10.5643 26.3673 10.03C26.3673 10.03 28.8078 10.4307 30.6879 12.2339Z" fill="#B6010E"/>
<path d="M16.8033 7.99316C20.563 7.99316 22.509 9.99666 22.509 9.99666C19.9694 10.3976 14.2363 14.0042 14.3628 20.2155C14.5034 27.128 19.0459 30 19.0459 30C19.0459 30 14.0329 29.733 11.2295 26.1931C9.34271 23.8107 8.33137 22.0003 8.32722 18.9466C8.32424 16.6357 8.77561 15.2348 9.97615 13.2695C10.9014 11.7555 12.6807 10.2973 13.0765 9.96361C13.1485 9.9027 13.1843 9.81458 13.1426 9.7297C13.1094 9.66283 12.7765 9.68563 12.5488 9.7297C11.8561 9.86318 11.017 10.3427 10.2071 10.9987C9.05294 11.9337 7.7666 13.8371 7.7666 13.8371C7.7666 13.8371 9.05281 11.1446 11.7902 9.49578C13.5451 8.43922 14.762 7.99316 16.8034 7.99316H16.8033Z" fill="#161616"/>
<path d="M23.0366 12.2679C23.5848 12.2951 24.4129 12.3684 24.422 12.5018C24.4246 12.541 24.4492 12.5744 24.422 12.6021C24.29 12.7356 21.999 13.5037 20.8271 15.0732C19.6551 16.6428 19.4473 17.678 19.3759 18.5463C19.244 20.1493 19.4542 21.1638 20.2004 22.587C20.8841 23.891 21.5243 24.5429 22.7399 25.3585C24.2516 26.3729 25.5437 26.667 27.3572 26.6609C28.2022 26.6581 29.3361 26.394 29.3361 26.394C29.3361 26.394 28.205 27.4276 27.3902 27.9633C26.54 28.5224 25.0815 29.1656 25.0815 29.1656C25.0815 29.1656 22.443 28.5828 20.497 26.8281C19.2503 25.7038 18.6853 24.8586 17.9907 23.3216C16.7373 20.5499 17.5617 17.2774 17.5617 17.2774C17.5617 17.2774 16.8032 19.0803 16.8032 21.0841C16.8032 23.0325 17.1311 24.1515 17.9247 25.9263C18.7163 27.6963 20.3983 29.3994 20.3983 29.3994C20.3983 29.3994 19.2081 28.5928 18.5185 27.8966C17.4662 26.834 16.8642 25.872 16.2758 24.4902C15.6693 23.0668 15.4651 22.3339 15.4511 20.7834C15.4389 19.4328 15.5514 18.6322 16.0446 17.3774C16.7594 15.5588 17.5122 14.518 19.1448 13.4702C20.487 12.6088 21.4496 12.1902 23.0366 12.2679Z" fill="#535353"/>
<path d="M47.4971 14.3087C46.3975 14.3087 45.4282 14.045 44.5887 13.5174C43.7612 12.9899 43.1229 12.275 42.6736 11.3722C42.2241 10.4578 42 9.44373 42 8.33028C42 7.18155 42.2422 6.12049 42.7268 5.14754C43.2235 4.17459 43.8913 3.40675 44.7306 2.84402C45.5819 2.28143 46.5039 2 47.4971 2C48.4427 2 49.2703 2.13483 49.9797 2.40433C50.7007 2.66234 51.2327 2.99652 51.5756 3.40675C51.7764 3.6531 51.9005 3.98112 51.9479 4.39149C51.9952 4.79007 52.0188 5.341 52.0188 6.04431H51.6641C51.4395 4.90722 51.0257 4.06908 50.4228 3.52992C49.82 2.97884 49.022 2.70344 48.0289 2.70344C46.7521 2.70344 45.7236 3.14888 44.9434 4.03963C44.1629 4.93064 43.773 6.36085 43.773 8.33014C43.773 9.25627 43.9207 10.1179 44.2163 10.915C44.5237 11.712 44.9967 12.3626 45.6349 12.8667C46.2733 13.3591 47.0713 13.6052 48.0289 13.6052C48.8917 13.6052 49.6424 13.4001 50.2811 12.9899C50.9312 12.5794 51.5104 11.9642 52.0188 11.1435L52.3735 11.4073C51.8293 12.4623 51.1556 13.2125 50.3518 13.6579C49.5596 14.0917 48.608 14.3086 47.4968 14.3086L47.4971 14.3087ZM54.8746 16.9463C55.4539 16.9463 55.9268 16.8115 56.2932 16.5419C56.6716 16.284 56.9967 15.8033 57.2686 15.1L57.6232 14.1328L54.786 7.27513C54.4551 6.43115 53.8047 5.96222 52.8353 5.86849V5.5168H54.3427C55.3711 5.5168 56.0804 5.98565 56.4706 6.92358L58.4921 11.7943L60.7265 5.69261H61.6131L58.1552 15.1C57.8122 16.0261 57.4341 16.6531 57.0203 16.9814C56.6066 17.3094 56.0687 17.4737 55.4068 17.4737H54.8748V16.9462L54.8746 16.9463ZM63.6468 7.80263C63.6468 7.20483 63.5639 6.76531 63.3983 6.48383C63.2328 6.19064 62.9019 6.04431 62.4053 6.04431H62.1393V5.69261H63.6468C64.084 5.69261 64.4091 5.75126 64.6219 5.86849C64.8465 5.97401 65.0061 6.17325 65.1007 6.46629C65.1952 6.75956 65.2425 7.20483 65.2425 7.80248V9.47313H68.7891V5.69261H70.3851V11.8469C70.3851 12.4447 70.4678 12.8902 70.6335 13.1831C70.799 13.4647 71.1299 13.6053 71.6265 13.6053H71.8925V13.957H70.3849C69.9475 13.957 69.6167 13.9043 69.392 13.7988C69.1793 13.6815 69.0255 13.4764 68.9311 13.1833C68.8365 12.8903 68.7892 12.4449 68.7892 11.8471V10.1764H65.2427V13.957H63.6468V7.80263ZM79.708 14.1328C78.7504 14.1328 77.8933 13.6639 77.1366 12.7262L75.0974 10.1764V13.957H73.5014V7.80263C73.5014 7.20483 73.4187 6.76531 73.2529 6.48383C73.0877 6.19064 72.7566 6.04431 72.2601 6.04431H71.9054V5.69261H73.5014C73.9389 5.69261 74.2639 5.75126 74.4767 5.86849C74.7013 5.97401 74.8609 6.17325 74.9555 6.46629C75.0499 6.75956 75.0973 7.20483 75.0973 7.80248V9.91258L77.314 6.8356C77.5859 6.4604 77.8992 6.17915 78.2538 5.99155C78.6202 5.79231 79.0754 5.69261 79.6193 5.69261H80.0625V6.13228C79.3769 6.13228 78.8449 6.396 78.4666 6.92358L76.516 9.64894L78.5553 12.1987C78.8861 12.6207 79.2115 12.9489 79.5305 13.1833C79.8616 13.4179 80.2162 13.5644 80.5945 13.6231V13.957C80.3345 14.0743 80.0389 14.1328 79.708 14.1328ZM84 14.1328C83.622 14.1328 83.238 14.0565 82.8479 13.9043C82.4577 13.7401 82.1208 13.4764 81.8371 13.113C81.5653 12.7496 81.4294 12.269 81.4294 11.6711C81.4294 10.7801 81.8432 10.1474 82.6707 9.77214C83.51 9.39694 84.6035 9.20941 85.9512 9.20941H86.4832C86.4832 8.06067 86.324 7.27513 86.0042 6.85299C85.6852 6.43122 85.2239 6.22012 84.6212 6.22012C84.0892 6.22012 83.664 6.33153 83.3442 6.55427C83.0253 6.7768 82.8008 7.16372 82.6707 7.71465H81.8728C81.8728 7.31609 81.8964 7.00552 81.9437 6.78284C81.9909 6.54823 82.1149 6.33138 82.3159 6.13214C82.5287 5.9211 82.8776 5.76865 83.3619 5.67492C83.8585 5.56942 84.3964 5.51667 84.9756 5.51667C85.9335 5.51667 86.6902 5.77455 87.2458 6.29056C87.8014 6.79448 88.0792 7.76734 88.0792 9.20926V13.957H87.1927L86.5716 13.1657H86.4832C86.2702 13.4354 85.9571 13.6638 85.5437 13.8515C85.1296 14.039 84.6153 14.1327 84.0007 14.1327L84 14.1328ZM84.798 13.3415C85.1885 13.3415 85.5142 13.2478 85.7736 13.0604C86.0337 12.8727 86.2702 12.6148 86.4832 12.2865V9.91273H85.9512C85.0765 9.91273 84.3846 10.0768 83.8762 10.4052C83.3678 10.7218 83.1139 11.1438 83.1139 11.6713C83.1139 12.2105 83.2735 12.6266 83.5925 12.9196C83.9234 13.2013 84.3257 13.3418 84.7987 13.3418L84.798 13.3415ZM90.818 7.80263C90.818 7.20483 90.7355 6.76531 90.5697 6.48383C90.4039 6.19064 90.0731 6.04431 89.5764 6.04431H89.222V5.69261H90.818C91.2675 5.69261 91.6042 5.75716 91.8289 5.88603C92.0647 6.00334 92.2305 6.20258 92.3256 6.48383H92.414C92.6269 6.21437 92.9283 5.9858 93.3181 5.79813C93.7086 5.61066 94.2053 5.51693 94.808 5.51693C95.8248 5.51693 96.6111 5.92715 97.1666 6.74777C97.7222 7.55667 98 8.58243 98 9.82504C98 11.0792 97.7104 12.1109 97.1313 12.9196C96.5632 13.7288 95.7298 14.1331 94.6304 14.1331C94.1809 14.1331 93.7853 14.0862 93.4426 13.9925C93.1 13.8987 92.7566 13.7697 92.414 13.6056V17.2982H90.818V7.80293V7.80263ZM94.0984 13.4295C94.8552 13.4295 95.4107 13.1012 95.7652 12.4447C96.1321 11.7883 96.3148 10.915 96.3148 9.82489C96.3148 8.74638 96.1439 7.87882 95.8013 7.22237C95.4579 6.55427 94.9495 6.21997 94.276 6.21997C93.4839 6.21997 92.8627 6.57166 92.414 7.27498V12.9019C92.7684 13.066 93.0757 13.1951 93.3358 13.2888C93.5959 13.3825 93.8501 13.4294 94.0984 13.4294V13.4295Z" fill="#161616"/>
<path d="M46.6738 22.0943H44.7971V26.8689H43.8406V22.0943H42V21.3258H46.6738V22.0943Z" fill="#B6010E"/>
<path d="M52.33 24.1588C52.33 25.0024 52.1353 25.682 51.7458 26.1977C51.3563 26.7135 50.829 26.9713 50.1637 26.9713C49.4847 26.9713 48.9505 26.7579 48.561 26.3309V29H47.6045V21.3258H48.4782L48.5248 21.9406C48.9143 21.4624 49.4554 21.2234 50.1482 21.2234C50.8203 21.2234 51.3511 21.4744 51.7406 21.9764C52.1336 22.4785 52.33 23.1769 52.33 24.0717V24.1588ZM51.3735 24.0512C51.3735 23.4262 51.2391 22.9327 50.9703 22.5707C50.7014 22.2087 50.3326 22.0277 49.8639 22.0277C49.2848 22.0277 48.8505 22.2821 48.561 22.791V25.4395C48.847 25.945 49.2848 26.1977 49.8742 26.1977C50.3326 26.1977 50.6963 26.0184 50.9651 25.6598C51.2374 25.2978 51.3735 24.7616 51.3735 24.0512Z" fill="#B6010E"/>
<path d="M57.0039 26.8689C56.9487 26.7596 56.9039 26.5649 56.8695 26.2848C56.4248 26.7425 55.894 26.9713 55.277 26.9713C54.7255 26.9713 54.2723 26.8176 53.9173 26.5102C53.5657 26.1995 53.3899 25.8067 53.3899 25.332C53.3899 24.7548 53.6105 24.3074 54.0517 23.9898C54.4963 23.6687 55.1202 23.5082 55.9233 23.5082H56.8539V23.0727C56.8539 22.7415 56.754 22.4785 56.5541 22.2838C56.3542 22.0857 56.0595 21.9867 55.67 21.9867C55.3287 21.9867 55.0427 22.0721 54.8117 22.2428C54.5808 22.4136 54.4653 22.6202 54.4653 22.8627H53.5037C53.5037 22.5861 53.6019 22.3197 53.7984 22.0635C53.9983 21.804 54.2671 21.599 54.6049 21.4488C54.9461 21.2985 55.3201 21.2234 55.7268 21.2234C56.3714 21.2234 56.8763 21.3839 57.2417 21.7049C57.6071 22.0225 57.7966 22.4614 57.8104 23.0215V25.5727C57.8104 26.0816 57.8759 26.4863 58.0069 26.7869V26.8689H57.0039ZM55.4166 26.1465C55.7165 26.1465 56.0009 26.0697 56.2697 25.916C56.5386 25.7623 56.7333 25.5625 56.8539 25.3166V24.1793H56.1043C54.9324 24.1793 54.3464 24.5191 54.3464 25.1988C54.3464 25.4959 54.4464 25.7281 54.6463 25.8955C54.8462 26.0628 55.103 26.1465 55.4166 26.1465Z" fill="#B6010E"/>
<path d="M59.103 24.1998C59.103 23.2742 59.2839 22.5468 59.6458 22.0174C60.0078 21.488 60.5041 21.2234 61.1349 21.2234C61.4278 21.2234 61.6846 21.2729 61.9052 21.3719V19H62.8617V21.4027C63.103 21.2831 63.3856 21.2234 63.7096 21.2234C64.3438 21.2234 64.8419 21.488 65.2038 22.0174C65.5657 22.5468 65.7467 23.3101 65.7467 24.3074C65.7467 25.1236 65.5657 25.7725 65.2038 26.2541C64.8453 26.7357 64.3507 26.9764 63.7199 26.9764C63.3856 26.9764 63.0995 26.9218 62.8617 26.8125V29H61.9052V26.8279C61.6777 26.9269 61.4175 26.9764 61.1245 26.9764C60.4972 26.9764 60.0026 26.7357 59.6407 26.2541C59.2822 25.7725 59.103 25.1134 59.103 24.2766V24.1998ZM64.7902 24.1998C64.7902 23.5031 64.6695 22.9635 64.4283 22.5809C64.187 22.195 63.8544 22.002 63.4304 22.002C63.2133 22.002 63.0237 22.0362 62.8617 22.1045V26.1158C63.0168 26.1738 63.2098 26.2029 63.4408 26.2029C63.8682 26.2029 64.1991 26.0389 64.4334 25.7111C64.6713 25.3832 64.7902 24.8794 64.7902 24.1998ZM60.0595 24.3074C60.0595 24.929 60.1715 25.4003 60.3955 25.7213C60.6196 26.0423 60.9418 26.2029 61.3623 26.2029C61.5623 26.2029 61.7432 26.1721 61.9052 26.1107V22.0891C61.7604 22.0311 61.5829 22.002 61.3727 22.002C60.9522 22.002 60.6282 22.1882 60.4007 22.5605C60.1732 22.9327 60.0595 23.515 60.0595 24.3074Z" fill="#B6010E"/>
<path d="M70.6118 21.3258H71.5683V26.8689H70.6118V22.8268L68.0319 26.8689H67.0754V21.3258H68.0319V25.373L70.6118 21.3258Z" fill="#B6010E"/>
<path d="M74.8462 24.5072H74.1482V26.8689H73.1866V21.3258H74.1482V23.6721H74.7738L76.6558 21.3258H77.8139L75.601 23.9898L78 26.8689H76.785L74.8462 24.5072Z" fill="#B6010E"/>
</svg>
