<svg width="150" height="53" viewBox="0 0 150 53" fill="none" xmlns="http://www.w3.org/2000/svg">
<path d="M53.5744 21.6136C56.8804 24.7994 57.8664 29.3422 57.8664 29.3422C57.8664 29.3422 58.6759 27.4482 58.8524 26.1564C59.0937 24.392 59.0669 23.5554 58.5624 21.8496C58.1162 20.3399 57.5958 19.2626 56.6484 18.0148C54.9017 15.7138 52.0664 14.5338 52.0664 14.5338C52.0664 14.5338 52.0664 12.823 51.6024 11.8201C50.5981 9.64949 48.9044 7.90159 46.4984 5.80249C43.656 3.32299 36.58 0.243186 30.4898 0.0206856C20.8035 -0.333314 14.0173 3.97349 14.0173 3.97349C14.0173 3.97349 21.4417 -0.366514 30.664 0.610686C37.276 1.31119 39.77 3.61949 39.77 3.61949C39.77 3.61949 31.766 1.33049 24.2837 2.85249C16.4537 4.44549 8.08466 10.0445 3.80926 18.2508C-2.86094 31.0531 1.25726 42.9115 1.25726 42.9115C1.25726 42.9115 -1.18904 32.587 3.80926 22.5575C10.1893 9.75519 21.6157 6.15649 21.6157 6.15649C18.9089 7.67049 13.6837 10.1682 9.08736 17.5428C0.59336 31.1711 5.60736 42.9705 6.30336 44.2094C2.53316 34.121 4.96936 24.0914 10.8274 16.8938C16.5116 9.90999 24.3417 8.39829 29.0978 8.39829C33.854 8.39829 39.2993 10.758 41.9162 13.236C40.7562 13.6687 39.8862 16.5377 41.3942 18.0148C43.1409 19.7258 45.2029 18.6638 45.9762 17.7198C45.9762 17.7198 50.2684 18.4278 53.5744 21.6136V21.6136Z" fill="#B6010E"/>
<path d="M29.1524 14.1201C35.7644 14.1201 39.1866 17.6599 39.1866 17.6599C34.7206 18.3679 24.638 24.7396 24.8603 35.7129C25.1076 47.9254 33.0965 52.9991 33.0965 52.9991C33.0965 52.9991 24.2803 52.5271 19.3501 46.2735C16.032 42.0645 14.253 38.8661 14.246 33.4711C14.2407 29.3885 15.0343 26.9135 17.146 23.4416C18.773 20.7668 21.9022 18.1909 22.5982 17.6009C22.7249 17.4936 22.788 17.3379 22.7142 17.1879C22.6562 17.0699 22.0707 17.1103 21.6702 17.1879C20.4522 17.4239 18.9765 18.2709 17.5522 19.4299C15.522 21.0816 13.26 24.4445 13.26 24.4445C13.26 24.4445 15.522 19.6875 20.3362 16.7749C23.4222 14.9078 25.5617 14.1201 29.1524 14.1201Z" fill="#161616"/>
<path d="M40.1217 21.6723C41.0851 21.7197 42.5417 21.8493 42.5577 22.0853C42.5624 22.1543 42.6057 22.2133 42.5577 22.2623C42.3257 22.4983 38.2967 23.8553 36.2357 26.628C34.1745 29.4008 33.8093 31.2297 33.6837 32.7636C33.4517 35.5956 33.8214 37.3879 35.1337 39.9023C36.336 42.2063 37.462 43.3581 39.5997 44.799C42.2583 46.591 44.5307 47.1106 47.7199 47.1C49.2063 47.095 51.1999 46.628 51.1999 46.628C51.1999 46.628 49.2109 48.4542 47.7779 49.4008C46.2826 50.3885 43.7179 51.5248 43.7179 51.5248C43.7179 51.5248 39.0777 50.4948 35.6556 47.3948C33.4631 45.4088 32.4696 43.9155 31.2476 41.2002C29.0436 36.3034 30.4936 30.5217 30.4936 30.5217C30.4936 30.5217 29.1596 33.7077 29.1596 37.2474C29.1596 40.6896 29.7356 42.6664 31.1316 45.802C32.5236 48.9288 35.4816 51.9376 35.4816 51.9376C35.4816 51.9376 33.3883 50.5126 32.1756 49.2828C30.3248 47.4058 29.2661 45.7062 28.2316 43.2651C27.1655 40.7501 26.8059 39.4554 26.7813 36.7166C26.7599 34.3301 26.9579 32.9161 27.8254 30.6988C29.0825 27.4861 30.4064 25.6474 33.2776 23.7961C35.6379 22.2745 37.3306 21.5351 40.1216 21.6724L40.1217 21.6723Z" fill="#535353"/>
<path d="M74.5312 39.8594H72.4043V45.3203H71.3203V39.8594H69.2344V38.9805H74.5312V39.8594ZM80.9414 42.2207C80.9414 43.1855 80.7207 43.9629 80.2793 44.5527C79.8379 45.1426 79.2402 45.4375 78.4863 45.4375C77.7168 45.4375 77.1113 45.1934 76.6699 44.7051V47.7578H75.5859V38.9805H76.5762L76.6289 39.6836C77.0703 39.1367 77.6836 38.8633 78.4688 38.8633C79.2305 38.8633 79.832 39.1504 80.2734 39.7246C80.7188 40.2988 80.9414 41.0977 80.9414 42.1211V42.2207ZM79.8574 42.0977C79.8574 41.3828 79.7051 40.8184 79.4004 40.4043C79.0957 39.9902 78.6777 39.7832 78.1465 39.7832C77.4902 39.7832 76.998 40.0742 76.6699 40.6562V43.6855C76.9941 44.2637 77.4902 44.5527 78.1582 44.5527C78.6777 44.5527 79.0898 44.3477 79.3945 43.9375C79.7031 43.5234 79.8574 42.9102 79.8574 42.0977ZM86.2383 45.3203C86.1758 45.1953 86.125 44.9727 86.0859 44.6523C85.582 45.1758 84.9805 45.4375 84.2812 45.4375C83.6562 45.4375 83.1426 45.2617 82.7402 44.9102C82.3418 44.5547 82.1426 44.1055 82.1426 43.5625C82.1426 42.9023 82.3926 42.3906 82.8926 42.0273C83.3965 41.6602 84.1035 41.4766 85.0137 41.4766H86.0684V40.9785C86.0684 40.5996 85.9551 40.2988 85.7285 40.0762C85.502 39.8496 85.168 39.7363 84.7266 39.7363C84.3398 39.7363 84.0156 39.834 83.7539 40.0293C83.4922 40.2246 83.3613 40.4609 83.3613 40.7383H82.2715C82.2715 40.4219 82.3828 40.1172 82.6055 39.8242C82.832 39.5273 83.1367 39.293 83.5195 39.1211C83.9062 38.9492 84.3301 38.8633 84.791 38.8633C85.5215 38.8633 86.0938 39.0469 86.5078 39.4141C86.9219 39.7773 87.1367 40.2793 87.1523 40.9199V43.8379C87.1523 44.4199 87.2266 44.8828 87.375 45.2266V45.3203H86.2383ZM84.4395 44.4941C84.7793 44.4941 85.1016 44.4062 85.4062 44.2305C85.7109 44.0547 85.9316 43.8262 86.0684 43.5449V42.2441H85.2188C83.8906 42.2441 83.2266 42.6328 83.2266 43.4102C83.2266 43.75 83.3398 44.0156 83.5664 44.207C83.793 44.3984 84.084 44.4941 84.4395 44.4941ZM88.6172 42.2676C88.6172 41.209 88.8223 40.377 89.2324 39.7715C89.6426 39.166 90.2051 38.8633 90.9199 38.8633C91.252 38.8633 91.543 38.9199 91.793 39.0332V36.3203H92.877V39.0684C93.1504 38.9316 93.4707 38.8633 93.8379 38.8633C94.5566 38.8633 95.1211 39.166 95.5312 39.7715C95.9414 40.377 96.1465 41.25 96.1465 42.3906C96.1465 43.3242 95.9414 44.0664 95.5312 44.6172C95.125 45.168 94.5645 45.4434 93.8496 45.4434C93.4707 45.4434 93.1465 45.3809 92.877 45.2559V47.7578H91.793V45.2734C91.5352 45.3867 91.2402 45.4434 90.9082 45.4434C90.1973 45.4434 89.6367 45.168 89.2266 44.6172C88.8203 44.0664 88.6172 43.3125 88.6172 42.3555V42.2676ZM95.0625 42.2676C95.0625 41.4707 94.9258 40.8535 94.6523 40.416C94.3789 39.9746 94.002 39.7539 93.5215 39.7539C93.2754 39.7539 93.0605 39.793 92.877 39.8711V44.459C93.0527 44.5254 93.2715 44.5586 93.5332 44.5586C94.0176 44.5586 94.3926 44.3711 94.6582 43.9961C94.9277 43.6211 95.0625 43.0449 95.0625 42.2676ZM89.7012 42.3906C89.7012 43.1016 89.8281 43.6406 90.082 44.0078C90.3359 44.375 90.7012 44.5586 91.1777 44.5586C91.4043 44.5586 91.6094 44.5234 91.793 44.4531V39.8535C91.6289 39.7871 91.4277 39.7539 91.1895 39.7539C90.7129 39.7539 90.3457 39.9668 90.0879 40.3926C89.8301 40.8184 89.7012 41.4844 89.7012 42.3906ZM101.66 38.9805H102.744V45.3203H101.66V40.6973L98.7363 45.3203H97.6523V38.9805H98.7363V43.6094L101.66 38.9805ZM106.459 42.6191H105.668V45.3203H104.578V38.9805H105.668V41.6641H106.377L108.51 38.9805H109.822L107.314 42.0273L110.033 45.3203H108.656L106.459 42.6191Z" fill="#B6010E"/>
<path d="M76.4959 27.8C75.0079 27.8 73.6959 27.44 72.5599 26.72C71.4399 26 70.5759 25.024 69.9679 23.792C69.3599 22.544 69.0559 21.16 69.0559 19.64C69.0559 18.072 69.3839 16.624 70.0399 15.296C70.7119 13.968 71.6159 12.92 72.7519 12.152C73.9039 11.384 75.1519 11 76.4959 11C77.7759 11 78.8959 11.184 79.8559 11.552C80.8319 11.904 81.5519 12.36 82.0159 12.92C82.2879 13.256 82.4559 13.704 82.5199 14.264C82.5839 14.808 82.6159 15.56 82.6159 16.52H82.1359C81.8319 14.968 81.2719 13.824 80.4559 13.088C79.6399 12.336 78.5599 11.96 77.2159 11.96C75.4879 11.96 74.0959 12.568 73.0399 13.784C71.9839 15 71.4559 16.952 71.4559 19.64C71.4559 20.904 71.6559 22.08 72.0559 23.168C72.4719 24.256 73.1119 25.144 73.9759 25.832C74.8399 26.504 75.9199 26.84 77.2159 26.84C78.3839 26.84 79.3999 26.56 80.2639 26C81.1439 25.44 81.9279 24.6 82.6159 23.48L83.0959 23.84C82.3599 25.28 81.4479 26.304 80.3599 26.912C79.2879 27.504 77.9999 27.8 76.4959 27.8V27.8ZM86.4809 31.4C87.2649 31.4 87.9049 31.216 88.4009 30.848C88.9129 30.496 89.3529 29.84 89.7209 28.88L90.2009 27.56L86.3609 18.2C85.9129 17.048 85.0329 16.408 83.7209 16.28V15.8H85.7609C87.1529 15.8 88.1129 16.44 88.6409 17.72L91.3769 24.368L94.4009 16.04H95.6009L90.9209 28.88C90.4569 30.144 89.9449 31 89.3849 31.448C88.8249 31.896 88.0969 32.12 87.2009 32.12H86.4809V31.4V31.4ZM98.3529 18.92C98.3529 18.104 98.2409 17.504 98.0169 17.12C97.7929 16.72 97.3449 16.52 96.6729 16.52H96.3129V16.04H98.3529C98.9449 16.04 99.3849 16.12 99.6729 16.28C99.9769 16.424 100.193 16.696 100.321 17.096C100.449 17.496 100.513 18.104 100.513 18.92V21.2H105.313V16.04H107.473V24.44C107.473 25.256 107.585 25.864 107.809 26.264C108.033 26.648 108.481 26.84 109.153 26.84H109.513V27.32H107.473C106.881 27.32 106.433 27.248 106.129 27.104C105.841 26.944 105.633 26.664 105.505 26.264C105.377 25.864 105.313 25.256 105.313 24.44V22.16H100.513V27.32H98.3529V18.92V18.92ZM120.091 27.56C118.795 27.56 117.635 26.92 116.611 25.64L113.851 22.16V27.32H111.691V18.92C111.691 18.104 111.579 17.504 111.355 17.12C111.131 16.72 110.683 16.52 110.011 16.52H109.531V16.04H111.691C112.283 16.04 112.723 16.12 113.011 16.28C113.315 16.424 113.531 16.696 113.659 17.096C113.787 17.496 113.851 18.104 113.851 18.92V21.8L116.851 17.6C117.219 17.088 117.643 16.704 118.123 16.448C118.619 16.176 119.235 16.04 119.971 16.04H120.571V16.64C119.643 16.64 118.923 17 118.411 17.72L115.771 21.44L118.531 24.92C118.979 25.496 119.419 25.944 119.851 26.264C120.299 26.584 120.779 26.784 121.291 26.864V27.32C120.939 27.48 120.539 27.56 120.091 27.56V27.56ZM125.9 27.56C125.388 27.56 124.868 27.456 124.34 27.248C123.812 27.024 123.356 26.664 122.972 26.168C122.604 25.672 122.42 25.016 122.42 24.2C122.42 22.984 122.98 22.12 124.1 21.608C125.236 21.096 126.716 20.84 128.54 20.84H129.26C129.26 19.272 129.044 18.2 128.612 17.624C128.18 17.048 127.556 16.76 126.74 16.76C126.02 16.76 125.444 16.912 125.012 17.216C124.58 17.52 124.276 18.048 124.1 18.8H123.02C123.02 18.256 123.052 17.832 123.116 17.528C123.18 17.208 123.348 16.912 123.62 16.64C123.908 16.352 124.38 16.144 125.036 16.016C125.708 15.872 126.436 15.8 127.22 15.8C128.516 15.8 129.54 16.152 130.292 16.856C131.044 17.544 131.42 18.872 131.42 20.84V27.32H130.22L129.38 26.24H129.26C128.972 26.608 128.548 26.92 127.988 27.176C127.428 27.432 126.732 27.56 125.9 27.56V27.56ZM126.98 26.48C127.508 26.48 127.948 26.352 128.3 26.096C128.652 25.84 128.972 25.488 129.26 25.04V21.8H128.54C127.356 21.8 126.42 22.024 125.732 22.472C125.044 22.904 124.7 23.48 124.7 24.2C124.7 24.936 124.916 25.504 125.348 25.904C125.796 26.288 126.34 26.48 126.98 26.48V26.48ZM135.127 18.92C135.127 18.104 135.015 17.504 134.791 17.12C134.567 16.72 134.119 16.52 133.447 16.52H132.967V16.04H135.127C135.735 16.04 136.191 16.128 136.495 16.304C136.815 16.464 137.039 16.736 137.167 17.12H137.287C137.575 16.752 137.983 16.44 138.511 16.184C139.039 15.928 139.711 15.8 140.527 15.8C141.903 15.8 142.967 16.36 143.719 17.48C144.471 18.584 144.847 19.984 144.847 21.68C144.847 23.392 144.455 24.8 143.671 25.904C142.903 27.008 141.775 27.56 140.287 27.56C139.679 27.56 139.143 27.496 138.679 27.368C138.215 27.24 137.751 27.064 137.287 26.84V31.88H135.127V18.92V18.92ZM139.567 26.6C140.591 26.6 141.343 26.152 141.823 25.256C142.319 24.36 142.567 23.168 142.567 21.68C142.567 20.208 142.335 19.024 141.871 18.128C141.407 17.216 140.719 16.76 139.807 16.76C138.735 16.76 137.895 17.24 137.287 18.2V25.88C137.767 26.104 138.183 26.28 138.535 26.408C138.887 26.536 139.231 26.6 139.567 26.6V26.6Z" fill="#161616"/>
</svg>
