<svg xmlns="http://www.w3.org/2000/svg" width="192" height="71" viewBox="0 0 192 71" xmlns:xlink="http://www.w3.org/1999/xlink">
  <desc>
    Created using Figma
  </desc>
  <use fill="#B6010E" xlink:href="#a"/>
  <use fill="#161616" xlink:href="#b" transform="translate(17.82 18.762)"/>
  <use fill="#535353" xlink:href="#c" transform="translate(35.97 28.775)"/>
  <g transform="translate(-2136 -21)">
    <use fill="#161616" xlink:href="#d" transform="translate(2230.29 39)"/>
  </g>
  <defs>
    <path id="a" d="M71.977 28.7178c4.4415 4.233 5.7662 10.269 5.7662 10.269s1.0875-2.5165 1.3247-4.233c.324-2.3444.288-3.456-.3897-5.7225-.5997-2.006-1.2988-3.4373-2.5715-5.0953-2.3467-3.057-6.156-4.625-6.156-4.625s0-2.273-.6234-3.6058c-1.3492-2.8842-3.6247-5.2066-6.8574-7.9956C58.6518 4.4153 49.145.3232 40.963.0276c-13.0134-.4704-22.1306 5.252-22.1306 5.252S28.8067-.487 41.1967.8113c8.8834.9308 12.234 3.9978 12.234 3.9978S42.6774 1.7677 32.625 3.7902C22.1052 5.9065 10.8618 13.346 5.1177 24.2495-3.8436 41.26 1.689 57.016 1.689 57.016s-3.2864-13.718 3.4287-27.044C13.6894 12.9616 29.0405 8.18 29.0405 8.18 25.404 10.192 18.384 13.5102 12.209 23.309.797 41.4167 7.5333 57.0944 8.4684 58.7406c-5.065-13.4045-1.7923-26.7306 6.078-36.294 7.6367-9.2794 18.1564-11.288 24.5462-11.288 6.3898 0 13.7056 3.1354 17.2214 6.428-1.5584.5747-2.7273 4.3867-.7013 6.3493 2.3467 2.2733 5.117.8623 6.156-.392 0 0 5.7665.9408 10.2082 5.1738z"/>
    <path id="b" d="M21.3513 0c8.8834 0 13.481 4.7033 13.481 4.7033-6.0003.9407-19.546 9.4067-19.2474 23.987.3322 16.2265 11.065 22.968 11.065 22.968s-11.8444-.6272-18.468-8.9364c-4.458-5.5926-6.8478-9.842-6.8573-17.0105-.0072-5.4246 1.059-8.713 3.8962-13.326 2.1857-3.554 6.3897-6.9767 7.3248-7.7606.1702-.1427.255-.3495.156-.5488-.078-.1568-.8647-.103-1.4028 0C9.6626 4.3898 7.68 5.515 5.7664 7.055 3.039 9.25 0 13.718 0 13.718S3.039 7.3974 9.5068 3.5275C13.6528 1.0467 16.5273 0 21.3513 0z"/>
    <path id="c" d="M17.9247.0215c1.2942.063 3.2514.2352 3.2728.5487.0062.0916.0645.1702 0 .2352-.3117.3135-5.7246 2.1165-8.4938 5.8007-2.769 3.6844-3.2598 6.1145-3.4286 8.1526-.3117 3.7626.1852 6.1442 1.9482 9.485 1.6154 3.0613 3.128 4.5918 6 6.5063 3.572 2.3808 6.6248 3.0713 10.9095 3.057 1.997-.0066 4.6755-.627 4.6755-.627s-2.6724 2.4265-4.5975 3.6842c-2.009 1.3124-5.4547 2.822-5.4547 2.822s-6.234-1.3682-10.8315-5.4872c-2.9457-2.639-4.2803-4.623-5.9223-8.2308-2.961-6.5063-1.013-14.1884-1.013-14.1884S3.197 16.0128 3.197 20.716c0 4.5737.774 7.2 2.6494 11.3665 1.8702 4.1546 5.8443 8.1524 5.8443 8.1524s-2.8124-1.8934-4.4417-3.5276c-2.4864-2.4938-3.909-4.7522-5.2988-7.9956C.518 25.3698.0352 23.6498.002 20.0106-.0268 16.84.2392 14.961 1.4047 12.015c1.6888-4.269 3.4673-6.7118 7.325-9.1715 3.1708-2.022 5.445-3.0045 9.195-2.822z"/>
    <path id="d" d="M10.62 28.6c-1.86 0-3.5-.45-4.92-1.35-1.4-.9-2.48-2.12-3.24-3.66-.76-1.56-1.14-3.29-1.14-5.19 0-1.96.41-3.77 1.23-5.43.84-1.66 1.97-2.97 3.39-3.93 1.44-.96 3-1.44 4.68-1.44 1.6 0 3 .23 4.2.69 1.22.44 2.12 1.01 2.7 1.71.34.42.55.98.63 1.68.08.68.12 1.62.12 2.82h-.6c-.38-1.94-1.08-3.37-2.1-4.29-1.02-.94-2.37-1.41-4.05-1.41-2.16 0-3.9.76-5.22 2.28-1.32 1.52-1.98 3.96-1.98 7.32 0 1.58.25 3.05.75 4.41.52 1.36 1.32 2.47 2.4 3.33 1.08.84 2.43 1.26 4.05 1.26 1.46 0 2.73-.35 3.81-1.05 1.1-.7 2.08-1.75 2.94-3.15l.6.45c-.92 1.8-2.06 3.08-3.42 3.84-1.34.74-2.95 1.11-4.83 1.11zm12.4812 4.5c.98 0 1.78-.23 2.4-.69.64-.44 1.19-1.26 1.65-2.46l.6-1.65-4.8-11.7c-.56-1.44-1.66-2.24-3.3-2.4v-.6h2.55c1.74 0 2.94.8 3.6 2.4l3.42 8.31 3.78-10.41h1.5l-5.85 16.05c-.58 1.58-1.22 2.65-1.92 3.21s-1.61.84-2.73.84h-.9v-.9zm14.84-15.6c0-1.02-.14-1.77-.42-2.25-.28-.5-.84-.75-1.68-.75h-.45v-.6h2.55c.74 0 1.29.1 1.65.3.38.18.65.52.81 1.02.16.5.24 1.26.24 2.28v2.85h6V13.9h2.7v10.5c0 1.02.14 1.78.42 2.28.28.48.84.72 1.68.72h.45v.6h-2.55c-.74 0-1.3-.09-1.68-.27-.36-.2-.62-.55-.78-1.05-.16-.5-.24-1.26-.24-2.28v-2.85h-6V28h-2.7V17.5zm27.1722 10.8c-1.62 0-3.07-.8-4.35-2.4l-3.45-4.35V28h-2.7V17.5c0-1.02-.14-1.77-.42-2.25-.28-.5-.84-.75-1.68-.75h-.6v-.6h2.7c.74 0 1.29.1 1.65.3.38.18.65.52.81 1.02.16.5.24 1.26.24 2.28v3.6l3.75-5.25c.46-.64.99-1.12 1.59-1.44.62-.34 1.39-.51 2.31-.51h.75v.75c-1.16 0-2.06.45-2.7 1.35l-3.3 4.65 3.45 4.35c.56.72 1.11 1.28 1.65 1.68.56.4 1.16.65 1.8.75V28c-.44.2-.94.3-1.5.3zm7.262 0c-.64 0-1.29-.13-1.95-.39-.66-.28-1.23-.73-1.71-1.35-.46-.62-.69-1.44-.69-2.46 0-1.52.7-2.6 2.1-3.24 1.42-.64 3.27-.96 5.55-.96h.9c0-1.96-.27-3.3-.81-4.02-.54-.72-1.32-1.08-2.34-1.08-.9 0-1.62.19-2.16.57-.54.38-.92 1.04-1.14 1.98h-1.35c0-.68.04-1.21.12-1.59.08-.4.29-.77.63-1.11.36-.36.95-.62 1.77-.78.84-.18 1.75-.27 2.73-.27 1.62 0 2.9.44 3.84 1.32.94.86 1.41 2.52 1.41 4.98V28h-1.5l-1.05-1.35h-.15c-.36.46-.89.85-1.59 1.17-.7.32-1.57.48-2.61.48zm1.35-1.35c.66 0 1.21-.16 1.65-.48.44-.32.84-.76 1.2-1.32V21.1h-.9c-1.48 0-2.65.28-3.51.84-.86.54-1.29 1.26-1.29 2.16 0 .92.27 1.63.81 2.13.56.48 1.24.72 2.04.72zM83.909 17.5c0-1.02-.14-1.77-.42-2.25-.28-.5-.84-.75-1.68-.75h-.6v-.6h2.7c.76 0 1.33.11 1.71.33.4.2.68.54.84 1.02h.15c.36-.46.87-.85 1.53-1.17.66-.32 1.5-.48 2.52-.48 1.72 0 3.05.7 3.99 2.1.94 1.38 1.41 3.13 1.41 5.25 0 2.14-.49 3.9-1.47 5.28-.96 1.38-2.37 2.07-4.23 2.07-.76 0-1.43-.08-2.01-.24-.58-.16-1.16-.38-1.74-.66v6.3h-2.7V17.5zm5.55 9.6c1.28 0 2.22-.56 2.82-1.68.62-1.12.93-2.61.93-4.47 0-1.84-.29-3.32-.87-4.44-.58-1.14-1.44-1.71-2.58-1.71-1.34 0-2.39.6-3.15 1.8v9.6c.6.28 1.12.5 1.56.66.44.16.87.24 1.29.24z"/>
  </defs>
</svg>
