<svg width="20" height="19" viewBox="0 0 20 19" fill="none" xmlns="http://www.w3.org/2000/svg">
<path d="M14.5 0C12.76 0 11.09 0.81 10 2.09C8.91 0.81 7.24 0 5.5 0C2.42 0 0 2.42 0 5.5C0 9.28 3.4 12.36 8.55 17.04L10 18.35L11.45 17.03C16.6 12.36 20 9.28 20 5.5C20 2.42 17.58 0 14.5 0ZM10.1 15.55L10 15.65L9.9 15.55C5.14 11.24 2 8.39 2 5.5C2 3.5 3.5 2 5.5 2C7.04 2 8.54 2.99 9.07 4.36H10.94C11.46 2.99 12.96 2 14.5 2C16.5 2 18 3.5 18 5.5C18 8.39 14.86 11.24 10.1 15.55Z" fill="black"/>
<path d="M14.05 1C12.484 1 10.981 1.66213 10 2.70845C9.019 1.66213 7.516 1 5.95 1C3.178 1 1 2.9782 1 5.49591C1 8.58583 4.06 11.1035 8.695 14.9292L10 16L11.305 14.921C15.94 11.1035 19 8.58583 19 5.49591C19 2.9782 16.822 1 14.05 1ZM10.09 13.7112L10 13.7929L9.91 13.7112C5.626 10.188 2.8 7.85831 2.8 5.49591C2.8 3.86104 4.15 2.63488 5.95 2.63488C7.336 2.63488 8.686 3.44414 9.163 4.56403H10.846C11.314 3.44414 12.664 2.63488 14.05 2.63488C15.85 2.63488 17.2 3.86104 17.2 5.49591C17.2 7.85831 14.374 10.188 10.09 13.7112Z" fill="black"/>
<path d="M13.6 2C12.208 2 10.872 2.5297 10 3.36676C9.128 2.5297 7.792 2 6.4 2C3.936 2 2 3.58256 2 5.59673C2 8.06866 4.72 10.0828 8.84 13.1433L10 14L11.16 13.1368C15.28 10.0828 18 8.06866 18 5.59673C18 3.58256 16.064 2 13.6 2ZM10.08 12.1689L10 12.2343L9.92 12.1689C6.112 9.35041 3.6 7.48665 3.6 5.59673C3.6 4.28883 4.8 3.3079 6.4 3.3079C7.632 3.3079 8.832 3.95531 9.256 4.85123H10.752C11.168 3.95531 12.368 3.3079 13.6 3.3079C15.2 3.3079 16.4 4.28883 16.4 5.59673C16.4 7.48665 13.888 9.35041 10.08 12.1689Z" fill="black"/>
<path d="M13.15 3C11.932 3 10.763 3.44142 10 4.13896C9.237 3.44142 8.068 3 6.85 3C4.694 3 3 4.3188 3 5.99728C3 8.05722 5.38 9.7357 8.985 12.2861L10 13L11.015 12.2807C14.62 9.7357 17 8.05722 17 5.99728C17 4.3188 15.306 3 13.15 3ZM10.07 11.4741L10 11.5286L9.93 11.4741C6.598 9.12534 4.4 7.57221 4.4 5.99728C4.4 4.90736 5.45 4.08992 6.85 4.08992C7.928 4.08992 8.978 4.62943 9.349 5.37602H10.658C11.022 4.62943 12.072 4.08992 13.15 4.08992C14.55 4.08992 15.6 4.90736 15.6 5.99728C15.6 7.57221 13.402 9.12534 10.07 11.4741Z" fill="black"/>
<path d="M12.7 4C11.656 4 10.654 4.35313 10 4.91117C9.346 4.35313 8.344 4 7.3 4C5.452 4 4 5.05504 4 6.39782C4 8.04578 6.04 9.38856 9.13 11.4289L10 12L10.87 11.4245C13.96 9.38856 16 8.04578 16 6.39782C16 5.05504 14.548 4 12.7 4ZM10.06 10.7793L10 10.8229L9.94 10.7793C7.084 8.90027 5.2 7.65777 5.2 6.39782C5.2 5.52589 6.1 4.87193 7.3 4.87193C8.224 4.87193 9.124 5.30354 9.442 5.90082H10.564C10.876 5.30354 11.776 4.87193 12.7 4.87193C13.9 4.87193 14.8 5.52589 14.8 6.39782C14.8 7.65777 12.916 8.90027 10.06 10.7793Z" fill="black"/>
<path d="M12.25 4C11.38 4 10.545 4.30899 10 4.79728C9.455 4.30899 8.62 4 7.75 4C6.21 4 5 4.92316 5 6.09809C5 7.54005 6.7 8.71499 9.275 10.5003L10 11L10.725 10.4965C13.3 8.71499 15 7.54005 15 6.09809C15 4.92316 13.79 4 12.25 4ZM10.05 9.93188L10 9.97003L9.95 9.93188C7.57 8.28774 6 7.20055 6 6.09809C6 5.33515 6.75 4.76294 7.75 4.76294C8.52 4.76294 9.27 5.1406 9.535 5.66322H10.47C10.73 5.1406 11.48 4.76294 12.25 4.76294C13.25 4.76294 14 5.33515 14 6.09809C14 7.20055 12.43 8.28774 10.05 9.93188Z" fill="black"/>
<path d="M11.8 4C11.104 4 10.436 4.30899 10 4.79728C9.564 4.30899 8.896 4 8.2 4C6.968 4 6 4.92316 6 6.09809C6 7.54005 7.36 8.71499 9.42 10.5003L10 11L10.58 10.4965C12.64 8.71499 14 7.54005 14 6.09809C14 4.92316 13.032 4 11.8 4ZM10.04 9.93188L10 9.97003L9.96 9.93188C8.056 8.28774 6.8 7.20055 6.8 6.09809C6.8 5.33515 7.4 4.76294 8.2 4.76294C8.816 4.76294 9.416 5.1406 9.628 5.66322H10.376C10.584 5.1406 11.184 4.76294 11.8 4.76294C12.6 4.76294 13.2 5.33515 13.2 6.09809C13.2 7.20055 11.944 8.28774 10.04 9.93188Z" fill="black"/>
<path d="M11.8 4C11.104 4 10.436 4.26485 10 4.68338C9.564 4.26485 8.896 4 8.2 4C6.968 4 6 4.79128 6 5.79837C6 7.03433 7.36 8.04142 9.42 9.57166L10 10L10.58 9.56839C12.64 8.04142 14 7.03433 14 5.79837C14 4.79128 13.032 4 11.8 4ZM10.04 9.08447L10 9.11717L9.96 9.08447C8.056 7.6752 6.8 6.74332 6.8 5.79837C6.8 5.14441 7.4 4.65395 8.2 4.65395C8.816 4.65395 9.416 4.97766 9.628 5.42561H10.376C10.584 4.97766 11.184 4.65395 11.8 4.65395C12.6 4.65395 13.2 5.14441 13.2 5.79837C13.2 6.74332 11.944 7.6752 10.04 9.08447Z" fill="black"/>
<rect x="5" y="3" width="9" height="7" fill="black"/>
</svg>
